<svg width="21" height="20" viewBox="0 0 21 20" fill="none" xmlns="http://www.w3.org/2000/svg">
<path d="M19.3062 11.5614C18.6247 10.8739 17.7241 10.4552 16.7682 10.3667C17.5934 9.62427 18.1141 8.55242 18.1141 7.35509C18.1141 5.1151 16.2989 3.29993 14.0585 3.29993C11.9187 3.29993 10.1667 4.95737 10.0146 7.05793C11.9183 7.88143 13.2542 9.77851 13.2542 11.981C13.2542 12.7854 13.0712 13.5714 12.7309 14.2846C13.221 14.5408 13.6729 14.872 14.0668 15.2693C15.0767 16.2863 15.6506 17.6923 15.6397 19.1258L15.6388 19.155L15.6379 19.1798L15.6022 19.8582H20.4599L20.5 14.4859C20.5083 13.3901 20.0791 12.3392 19.3062 11.5614Z" fill="#F3C73B"/>
<path d="M10.6015 14.9936C11.4263 14.2516 11.9487 13.1793 11.9487 11.9819C11.9487 9.74151 10.1327 7.9259 7.89266 7.9259C5.65224 7.9259 3.83663 9.74151 3.83663 11.9819C3.83663 13.1771 4.35687 14.2485 5.18036 14.991C3.07152 15.1543 1.4058 16.9007 1.39055 19.0509L1.35046 19.8583H7.51708H14.2937L14.3338 19.1115C14.3416 18.0161 13.912 16.9652 13.1395 16.1874C12.4572 15.4994 11.557 15.082 10.6015 14.9936Z" fill="#F3C73B"/>
<path d="M3.11601 4.89206V6.39875C3.11601 7.02269 3.62318 7.52942 4.24755 7.52942C4.87279 7.52942 5.37909 7.02269 5.37909 6.39875V4.89206H6.88404C7.50841 4.89206 8.01514 4.3849 8.01514 3.76052C8.01514 3.13659 7.50841 2.62942 6.88404 2.62942H5.37909V1.14495C5.37909 0.520578 4.87279 0.0142822 4.24755 0.0142822C3.62318 0.0142822 3.11601 0.520578 3.11601 1.14495V2.62898H1.63111C1.00586 2.62898 0.5 3.13615 0.5 3.76009C0.5 4.38446 1.00586 4.89163 1.63111 4.89163L3.11601 4.89206Z" fill="#F3C73B"/>
</svg>
