<svg width="24" height="24" viewBox="0 0 24 24" fill="none" xmlns="http://www.w3.org/2000/svg">
<path d="M22.5673 13.9503C21.7496 13.1253 20.6688 12.6228 19.5217 12.5167C20.512 11.6257 21.1368 10.3395 21.1368 8.90269C21.1368 6.21471 18.9586 4.0365 16.2701 4.0365C13.7023 4.0365 11.6 6.02543 11.4175 8.54611C13.7018 9.5343 15.3049 11.8108 15.3049 14.4538C15.3049 15.419 15.0853 16.3622 14.6769 17.2181C15.2652 17.5256 15.8074 17.923 16.28 18.3998C17.492 19.6201 18.1806 21.3074 18.1675 23.0276L18.1665 23.0626L18.1654 23.0924L18.1225 23.9065H23.9518L23.9999 17.4597C24.0099 16.1447 23.4949 14.8836 22.5673 13.9503Z" fill="#181A20"/>
<path d="M12.1217 18.0688C13.1115 17.1784 13.7384 15.8917 13.7384 14.4549C13.7384 11.7664 11.5591 9.58765 8.87115 9.58765C6.18264 9.58765 4.00391 11.7664 4.00391 14.4549C4.00391 15.8891 4.62819 17.1748 5.61639 18.0657C3.08578 18.2618 1.08691 20.3574 1.06861 22.9377L1.02051 23.9065H8.42045H16.5524L16.6005 23.0103C16.6099 21.6959 16.0944 20.4348 15.1673 19.5015C14.3486 18.6759 13.2683 18.175 12.1217 18.0688Z" fill="#181A20"/>
<path d="M3.13921 5.94697V7.75499C3.13921 8.50372 3.74781 9.1118 4.49706 9.1118C5.24735 9.1118 5.85491 8.50372 5.85491 7.75499V5.94697H7.66084C8.41009 5.94697 9.01817 5.33837 9.01817 4.58912C9.01817 3.84039 8.41009 3.23179 7.66084 3.23179H5.85491V1.45043C5.85491 0.701183 5.24735 0.0936279 4.49706 0.0936279C3.74781 0.0936279 3.13921 0.701183 3.13921 1.45043V3.23127H1.35733C0.607032 3.23127 0 3.83987 0 4.5886C0 5.33784 0.607032 5.94644 1.35733 5.94644L3.13921 5.94697Z" fill="#181A20"/>
</svg>
