<svg width="20" height="21" viewBox="0 0 20 21" fill="none" xmlns="http://www.w3.org/2000/svg">
<path d="M13.0667 8.88599L13.581 11.125C13.6991 11.64 13.9496 12.086 14.3001 12.432C14.6505 12.778 15.1039 13.025 15.6258 13.141L17.8962 13.648C18.1143 13.696 18.2505 13.91 18.202 14.124C18.1667 14.279 18.0439 14.393 17.8962 14.426L15.6258 14.933C15.1304 15.0376 14.6719 15.2828 14.3001 15.642C13.9505 15.988 13.6991 16.434 13.581 16.949L13.0667 19.188C13.0182 19.403 12.801 19.538 12.5839 19.49C12.4267 19.455 12.3115 19.334 12.2782 19.188L11.7639 16.949C11.6515 16.4487 11.4014 15.9942 11.0448 15.642C10.6934 15.296 10.241 15.049 9.72006 14.932L7.44863 14.425C7.23054 14.377 7.09339 14.163 7.14292 13.948C7.17815 13.793 7.30101 13.679 7.44863 13.646L9.71911 13.139C10.2145 13.0344 10.673 12.7892 11.0448 12.43C11.3943 12.084 11.6458 11.638 11.7639 11.123L12.2782 8.88399C12.3267 8.66899 12.5439 8.53399 12.761 8.58199C12.9182 8.61699 13.0343 8.73799 13.0667 8.88399V8.88599ZM15.4401 1.81199L15.6772 2.84699C15.7219 3.04183 15.8203 3.21852 15.9601 3.35499C16.1011 3.48711 16.273 3.57753 16.4582 3.61699L17.5077 3.85099C17.7258 3.89899 17.8629 4.11299 17.8134 4.32699C17.7782 4.48199 17.6553 4.59599 17.5067 4.62899L16.4572 4.86299C16.2572 4.90799 16.0839 5.00199 15.9505 5.13299C15.8172 5.26399 15.721 5.43699 15.6762 5.63299L15.4382 6.66799C15.3896 6.88299 15.1724 7.01799 14.9553 6.96999C14.7982 6.93499 14.682 6.81399 14.6496 6.66799L14.4115 5.63299C14.3667 5.43599 14.2705 5.26499 14.1382 5.13299C13.9956 4.99655 13.8205 4.90324 13.6315 4.86299L12.582 4.62899C12.3639 4.58099 12.2267 4.36699 12.2762 4.15299C12.3115 3.99799 12.4343 3.88399 12.5829 3.85099L13.6324 3.61699C13.8251 3.57555 14.0031 3.47899 14.1467 3.33799C14.278 3.20419 14.3701 3.03386 14.4124 2.84699L14.6505 1.81199C14.6991 1.59699 14.9163 1.46199 15.1334 1.50999C15.2905 1.54499 15.4077 1.66599 15.4401 1.81199ZM6.79339 3.50699L7.1553 5.08299C7.22954 5.41291 7.39447 5.71266 7.62958 5.94499L7.64673 5.96299C7.8753 6.18099 8.16768 6.33799 8.50387 6.41299L10.102 6.76899C10.3201 6.81699 10.4563 7.03099 10.4077 7.24499C10.3724 7.39999 10.2496 7.51399 10.102 7.54699L8.50387 7.90399C8.15911 7.98099 7.86101 8.14399 7.62958 8.37099C7.39815 8.59799 7.23434 8.89399 7.15625 9.23399L6.79434 10.81C6.74577 11.025 6.52863 11.16 6.31149 11.112C6.15435 11.077 6.03815 10.956 6.00577 10.81L5.64387 9.23399C5.56962 8.90407 5.4047 8.60433 5.16958 8.37199C4.93815 8.14399 4.64006 7.98099 4.29625 7.90399L2.69815 7.54699C2.48006 7.49899 2.34292 7.28499 2.39244 7.07099C2.42768 6.91599 2.55054 6.80199 2.69815 6.76899L4.29625 6.41299C4.62267 6.34387 4.92476 6.18199 5.16958 5.94499L5.18768 5.92799C5.41347 5.69785 5.57178 5.40462 5.64387 5.08299L6.00577 3.50699C6.05435 3.29199 6.27149 3.15699 6.48863 3.20499C6.64577 3.23999 6.76101 3.36099 6.79339 3.50699Z" fill="#F3C73B"/>
</svg>
