<svg width="18" height="19" viewBox="0 0 18 19" fill="none" xmlns="http://www.w3.org/2000/svg">
<path d="M16.723 12.7127C16.7235 12.6387 16.7093 12.5653 16.6813 12.4968C16.6533 12.4282 16.612 12.3659 16.5599 12.3133L10.1924 5.92333C9.87601 5.60731 9.44711 5.42981 8.99992 5.42981C8.55273 5.42981 8.12382 5.60731 7.80742 5.92333L1.43992 12.2852C1.33399 12.3926 1.27508 12.5377 1.27614 12.6886C1.27719 12.8394 1.33813 12.9837 1.44554 13.0896C1.55295 13.1955 1.69804 13.2544 1.84889 13.2534C1.99974 13.2523 2.14399 13.1914 2.24992 13.084L8.60054 6.71645C8.65283 6.66373 8.71505 6.62188 8.78359 6.59332C8.85214 6.56477 8.92566 6.55006 8.99992 6.55006C9.07417 6.55006 9.14769 6.56477 9.21624 6.59332C9.28479 6.62188 9.347 6.66373 9.39929 6.71645L15.7499 13.084C15.8022 13.1367 15.8644 13.1785 15.933 13.2071C16.0015 13.2356 16.075 13.2503 16.1493 13.2503C16.2235 13.2503 16.2971 13.2356 16.3656 13.2071C16.4342 13.1785 16.4964 13.1367 16.5487 13.084C16.6514 12.9866 16.7137 12.854 16.723 12.7127Z" fill="currentColor"/>
</svg>
