<svg width="8" height="8" viewBox="0 0 8 8" fill="none" xmlns="http://www.w3.org/2000/svg">
<g clip-path="url(#clip0_4506_16924)">
<path d="M2.49998 0.567504C2.53288 0.567313 2.56549 0.57362 2.59595 0.586061C2.62641 0.598502 2.65412 0.616833 2.67748 0.640003L5.51748 3.47C5.65793 3.61063 5.73682 3.80125 5.73682 4C5.73682 4.19875 5.65793 4.38938 5.51748 4.53L2.68998 7.36C2.64224 7.40708 2.57775 7.43326 2.51071 7.43279C2.44366 7.43232 2.37955 7.40524 2.33248 7.3575C2.2854 7.30976 2.25922 7.24528 2.25969 7.17824C2.26015 7.11119 2.28724 7.04708 2.33498 7L5.16498 4.1775C5.18841 4.15426 5.20701 4.12661 5.2197 4.09615C5.23239 4.06568 5.23893 4.03301 5.23893 4C5.23893 3.967 5.23239 3.93432 5.2197 3.90386C5.20701 3.87339 5.18841 3.84574 5.16498 3.8225L2.33498 1C2.31154 0.976762 2.29295 0.949112 2.28025 0.918647C2.26756 0.888182 2.26103 0.855507 2.26103 0.822504C2.26103 0.789501 2.26756 0.756824 2.28025 0.72636C2.29295 0.695894 2.31154 0.668244 2.33498 0.645003C2.37826 0.599324 2.43718 0.571649 2.49998 0.567504Z" fill="#F3C73B"/>
</g>
<defs>
<clipPath id="clip0_4506_16924">
<rect width="8" height="8" fill="white" transform="translate(8 8) rotate(-180)"/>
</clipPath>
</defs>
</svg>
