<svg width="14" height="12" viewBox="0 0 14 12" fill="none" xmlns="http://www.w3.org/2000/svg">
<path d="M2.62239 3.34045C2.06924 3.73536 1.62077 4.15763 1.27711 4.52981C0.50016 5.37122 0.500161 6.62866 1.27711 7.47006C2.28476 8.56136 4.19348 10.0833 7.00002 10.0833C7.7559 10.0833 8.44662 9.97291 9.07219 9.79027L8.10222 8.8203C7.75461 8.88213 7.38723 8.91661 7.00002 8.91661C4.64737 8.91661 3.02654 7.64494 2.13424 6.67859C1.77 6.28414 1.77 5.71574 2.13424 5.32129C2.47191 4.9556 2.91392 4.54618 3.46043 4.1785L2.62239 3.34045Z" fill="white"/>
<path d="M4.9776 5.69568C4.96276 5.79496 4.95508 5.89652 4.95508 5.99995C4.95508 7.12753 5.86917 8.04161 6.99675 8.04161C7.10012 8.04161 7.20173 8.03391 7.30102 8.0191L4.9776 5.69568Z" fill="white"/>
<path d="M9.0219 6.26079L6.73593 3.97482C6.82133 3.96392 6.90836 3.95831 6.99674 3.95831C8.12432 3.95831 9.03841 4.8724 9.03841 5.99998C9.03841 6.08835 9.03281 6.17539 9.0219 6.26079Z" fill="white"/>
<path d="M10.5652 7.80409C11.0999 7.44091 11.5334 7.03858 11.8658 6.67861C12.23 6.28416 12.23 5.71576 11.8658 5.32131C10.9735 4.35497 9.35264 3.08329 7 3.08329C6.62632 3.08329 6.27112 3.11537 5.93437 3.17321L4.96115 2.20002C5.57789 2.02314 6.25753 1.91663 7 1.91663C9.80653 1.91663 11.7153 3.43857 12.7229 4.52983C13.4998 5.37124 13.4998 6.62868 12.7229 7.47008C12.3845 7.83664 11.9443 8.2518 11.4026 8.64153L10.5652 7.80409Z" fill="white"/>
<path d="M1.17128 0.996179C0.943475 0.768376 0.943475 0.399026 1.17128 0.171223C1.39909 -0.0565861 1.76844 -0.0565861 1.99624 0.171223L12.8336 11.0086C13.0614 11.2364 13.0614 11.6057 12.8336 11.8335C12.6058 12.0613 12.2364 12.0613 12.0086 11.8335L1.17128 0.996179Z" fill="white"/>
</svg>
