<svg width="17" height="21" viewBox="0 0 17 21" fill="none" xmlns="http://www.w3.org/2000/svg">
<g clip-path="url(#clip0_4655_60)">
<path d="M2.59105 1.07494C2.20548 0.97206 1.0824 1.39411 0.670951 2.61015C0.275027 3.78135 0.414765 5.53814 2.03469 6.98631C3.65462 8.43447 4.39471 8.23136 4.39471 9.47905C4.39471 10.7267 3.45536 10.5658 3.36996 10.3047C3.66755 10.2598 3.74001 9.7824 3.49676 9.63732C3.2561 9.49224 2.75667 9.52126 2.64281 9.94067C2.52895 10.3601 2.68421 10.8243 3.11119 10.9984C3.53817 11.1725 4.46199 11.1567 4.80357 10.4471C5.14515 9.73756 4.9873 8.66396 4.61984 8.1575C4.2498 7.65104 2.24171 5.98657 1.9053 5.18731C1.43692 4.07151 1.336 2.28834 2.50307 2.014C2.82913 1.17254 2.58847 1.0723 2.58847 1.0723L2.59105 1.07494Z" fill="#ED9F2E"/>
<path d="M4.53443 3.62575C2.73077 3.60993 2.24945 2.45192 2.24945 1.77136H3.09305C3.09305 1.94282 3.16292 2.80275 4.54219 2.81594L4.53443 3.62839V3.62575Z" fill="#EA8000"/>
<path d="M4.80874 10.4498C5.15032 9.74024 4.99247 8.66665 4.62501 8.16018C4.25497 7.65372 2.24688 5.98925 1.91047 5.18999C1.44209 4.07419 1.34117 2.29102 2.50824 2.01668C2.58587 1.81357 2.63245 1.6553 2.65574 1.52869C1.78367 1.76345 1.29718 2.33322 1.19884 3.17997C1.00994 4.82333 1.50161 5.69118 2.31675 6.40603C3.42689 7.37939 3.56663 7.48754 4.24979 8.18392C4.93295 8.88031 4.79839 9.76926 4.51633 10.252C4.23168 10.7347 3.68308 10.8508 3.41654 10.7743C2.97921 10.6477 2.7903 10.3311 2.84724 9.92489C2.86535 9.80091 2.91193 9.69012 2.97921 9.59516C2.82912 9.64528 2.69973 9.75343 2.64798 9.94336C2.53412 10.3628 2.68938 10.827 3.11636 11.0011C3.54334 11.1752 4.46716 11.1594 4.80874 10.4498Z" fill="#C46600"/>
<path d="M4.53701 3.3567C2.87827 3.20106 2.6816 2.29365 2.63244 1.77136H2.24945C2.24945 2.45192 2.73077 3.60993 4.53443 3.62575V3.3567H4.53701Z" fill="#ED9F2E"/>
<path d="M3.16293 1.54712C3.16293 1.92169 2.86534 2.22241 2.49788 2.22241C2.13042 2.22241 1.83542 1.91906 1.83542 1.54712C1.83542 1.17519 2.13042 0.869202 2.49788 0.869202C2.86534 0.869202 3.16293 1.17255 3.16293 1.54712Z" fill="#EA8000"/>
<path d="M14.3782 1.07494C14.7612 0.97206 15.8843 1.39411 16.2983 2.61015C16.6942 3.78135 16.5545 5.53814 14.9346 6.98631C13.3147 8.43447 12.5746 8.23136 12.5746 9.47905C12.5746 10.7267 13.5139 10.5658 13.5993 10.3047C13.3017 10.2598 13.2293 9.7824 13.4725 9.63732C13.7132 9.49224 14.2126 9.52126 14.3265 9.94067C14.4403 10.3601 14.2825 10.8243 13.8581 10.9984C13.4311 11.1725 12.5073 11.1567 12.1657 10.4471C11.8241 9.73756 11.982 8.66396 12.352 8.1575C12.7221 7.65104 14.7302 5.98657 15.0666 5.18731C15.5349 4.07151 15.6359 2.28834 14.4688 2.014C14.1427 1.17254 14.3834 1.0723 14.3834 1.0723L14.3782 1.07494Z" fill="#ED9F2E"/>
<path d="M12.4348 3.62575C14.2385 3.60993 14.7198 2.45192 14.7198 1.77136H13.8762C13.8762 1.94282 13.8063 2.80275 12.4271 2.81594L12.4348 3.62839V3.62575Z" fill="#EA8000"/>
<path d="M12.1605 10.4498C11.8189 9.74024 11.9768 8.66665 12.3468 8.16018C12.7169 7.65372 14.725 5.98925 15.0614 5.18999C15.5298 4.07419 15.6307 2.29102 14.4636 2.01668C14.386 1.81357 14.3394 1.6553 14.3161 1.52869C15.1882 1.76345 15.6747 2.33322 15.773 3.17997C15.9619 4.82333 15.4702 5.69118 14.6551 6.40603C13.5424 7.37939 13.4052 7.48754 12.7221 8.18392C12.0389 8.88031 12.1709 9.76926 12.4555 10.252C12.7402 10.7347 13.2888 10.8508 13.5553 10.7743C13.9926 10.6477 14.1815 10.3311 14.1246 9.92489C14.1065 9.80091 14.0599 9.69012 13.9926 9.59516C14.1427 9.64528 14.2721 9.75343 14.3239 9.94336C14.4377 10.3628 14.2799 10.827 13.8555 11.0011C13.4285 11.1752 12.5047 11.1594 12.1631 10.4498H12.1605Z" fill="#C46600"/>
<path d="M12.4323 3.3567C14.091 3.20106 14.2877 2.29365 14.3368 1.77136H14.7198C14.7198 2.45192 14.2385 3.60993 12.4348 3.62575V3.3567H12.4323Z" fill="#ED9F2E"/>
<path d="M13.8063 1.54712C13.8063 1.92169 14.1039 2.22241 14.4714 2.22241C14.8388 2.22241 15.1338 1.91906 15.1338 1.54712C15.1338 1.17519 14.8363 0.869202 14.4714 0.869202C14.1065 0.869202 13.8063 1.17255 13.8063 1.54712Z" fill="#EA8000"/>
<path d="M9.33211 14.6492V11.2859H7.66302V14.6492C7.66302 15.6964 6.9721 16.5853 6.03275 16.8702V16.9678H10.9598V16.8702C10.0205 16.5853 9.32953 15.6964 9.32953 14.6492H9.33211Z" fill="#ED9F2E"/>
<path d="M6.03274 16.8703V16.9679H10.9598V16.8703C10.2378 16.6513 9.66334 16.0736 9.43562 15.343H7.55433C7.32661 16.0736 6.75213 16.6513 6.03015 16.8703H6.03274Z" fill="#C46600"/>
<path d="M9.5883 13.6627C9.5883 14.3775 9.09922 14.9578 8.49886 14.9578C7.89851 14.9578 7.40942 14.3775 7.40942 13.6627C7.40942 12.9478 7.89851 12.3675 8.49886 12.3675C9.09922 12.3675 9.5883 12.9478 9.5883 13.6627Z" fill="#EA8000"/>
<path d="M8.5739 1.8584H3.87198C3.87198 1.8584 4.44128 2.97947 4.55514 4.33268C4.669 5.68588 4.55514 8.70092 5.27453 10.0911C5.99393 11.4812 6.90481 12.4097 8.49627 12.4097C10.0877 12.4097 10.9986 11.4812 11.718 10.0911C12.4374 8.70092 12.3235 5.68588 12.4374 4.33268C12.5513 2.97947 13.1206 1.8584 13.1206 1.8584H8.57132H8.5739Z" fill="#ED9F2E"/>
<path d="M8.49885 11.046C6.87375 11.046 5.46343 9.77981 4.7518 7.92542C4.84237 8.76424 4.99505 9.55032 5.27452 10.0911C5.99392 11.4812 6.9048 12.4097 8.49626 12.4097C10.0877 12.4097 10.9986 11.4812 11.718 10.0911C11.9975 9.55032 12.1527 8.76424 12.2433 7.92542C11.5317 9.78244 10.1214 11.046 8.49626 11.046H8.49885Z" fill="#EA8000"/>
<path d="M13.3457 2.18548V2.02985C13.3457 1.71067 13.0895 1.44952 12.7764 1.44952H4.21872C3.9056 1.44952 3.64941 1.71067 3.64941 2.02985V2.18548H13.3457Z" fill="#EA8000"/>
<path d="M3.64941 2.03248V2.18811H13.3457V2.03248C13.3457 1.99818 13.3405 1.96653 13.3353 1.93488H3.65977C3.65459 1.96653 3.64941 1.99818 3.64941 2.03248Z" fill="#C46600"/>
<path d="M12.0052 17.8172V17.4875C12.0052 17.1683 11.749 16.9072 11.4359 16.9072H5.55917C5.24605 16.9072 4.98987 17.1683 4.98987 17.4875V17.8172H12.0026H12.0052Z" fill="#ED9F2E"/>
<path d="M12.0052 17.4902H4.99246V17.8173H12.0052V17.4902Z" fill="#C46600"/>
<path d="M12.8049 20.8692V18.3184C12.8049 17.9992 12.5487 17.7381 12.2356 17.7381H4.75699C4.44387 17.7381 4.18768 17.9992 4.18768 18.3184V20.8692H12.8023H12.8049Z" fill="#ED9F2E"/>
<path d="M12.8049 20.3785H4.19028V20.8718H12.8049V20.3785Z" fill="#C46600"/>
</g>
<defs>
<clipPath id="clip0_4655_60">
<rect width="16" height="20" fill="white" transform="translate(0.484619 0.869202)"/>
</clipPath>
</defs>
</svg>
