<svg width="101" height="100" viewBox="0 0 101 100" fill="none" xmlns="http://www.w3.org/2000/svg">
<rect x="0.74707" y="0.5" width="99" height="99" rx="49.5" fill="#181A20"/>
<rect x="0.74707" y="0.5" width="99" height="99" rx="49.5" stroke="#181A20"/>
<path d="M50.2476 59.6666C36.3276 59.6666 33.8617 45.7938 33.4249 34.7906C33.3033 31.7299 33.2426 30.1996 34.3923 28.7837C35.5419 27.3678 36.9179 27.1356 39.6698 26.6713C42.3863 26.2129 45.9372 25.8333 50.2476 25.8333C54.5577 25.8333 58.1088 26.2129 60.8251 26.6713C63.5772 27.1356 64.953 27.3678 66.1026 28.7837C67.2525 30.1996 67.1916 31.7299 67.07 34.7906C66.6333 45.7938 64.1674 59.6666 50.2476 59.6666Z" fill="#25272F"/>
<path d="M63.5381 51.0198L70.3446 47.2382C72.1629 46.228 73.0721 45.723 73.5728 44.872C74.0735 44.0211 74.0735 42.981 74.0735 40.9009V40.7256C74.0738 38.2036 74.0738 36.9425 73.3894 35.9932C72.7052 35.0438 71.509 34.645 69.1162 33.8475L66.8238 33.0833L66.7829 33.2879C66.7716 33.7453 66.7518 34.2435 66.73 34.7906C66.5166 40.1662 65.8189 46.2268 63.5381 51.0198Z" fill="#25272F"/>
<path d="M33.4245 34.7906C33.6379 40.1665 34.3357 46.2273 36.6169 51.0205L29.8091 47.2382C27.9908 46.228 27.0816 45.723 26.5809 44.872C26.0802 44.0211 26.0802 42.981 26.0801 40.9009V40.7256C26.08 38.2036 26.08 36.9425 26.7642 35.9932C27.4485 35.0438 28.6448 34.645 31.0374 33.8475L33.3299 33.0833L33.3718 33.2929C33.3832 33.7489 33.4028 34.2455 33.4245 34.7906Z" fill="#25272F"/>
<path fill-rule="evenodd" clip-rule="evenodd" d="M33.9346 74.1666C33.9346 73.1656 34.7461 72.3541 35.7471 72.3541H64.7471C65.7481 72.3541 66.5596 73.1656 66.5596 74.1666C66.5596 75.1676 65.7481 75.9791 64.7471 75.9791H35.7471C34.7461 75.9791 33.9346 75.1676 33.9346 74.1666Z" fill="#25272F"/>
<path d="M58.6024 72.3541H41.8906L42.6079 68.1254C42.8338 66.9956 43.8257 66.1827 44.9777 66.1827H55.5154C56.6674 66.1827 57.6592 66.9956 57.8851 68.1254L58.6024 72.3541Z" fill="#25272F"/>
<path d="M50.2476 59.6671C49.6202 59.6671 49.0163 59.6388 48.4346 59.584V66.1827H52.0596V59.584C51.4781 59.6388 50.8744 59.6671 50.2476 59.6671Z" fill="#25272F"/>
</svg>
