<svg width="20" height="19" viewBox="0 0 20 19" fill="none" xmlns="http://www.w3.org/2000/svg">
<g clip-path="url(#clip0_202_816)">
<path opacity="0.995" fill-rule="evenodd" clip-rule="evenodd" d="M8.87793 -0.0185547C9.16245 -0.0185547 9.44693 -0.0185547 9.73145 -0.0185547C9.73145 0.736001 9.73145 1.49056 9.73145 2.24512C6.63333 2.38026 4.41297 3.83989 3.07031 6.62402C2.16595 8.91582 2.32676 11.13 3.55273 13.2666C5.00842 15.48 7.06799 16.6304 9.73145 16.7178C9.73145 17.4723 9.73145 18.2269 9.73145 18.9814C9.44693 18.9814 9.16245 18.9814 8.87793 18.9814C5.17542 18.5008 2.53447 16.5712 0.955078 13.1924C0.578935 12.2691 0.337724 11.3167 0.231445 10.335C0.231445 9.76596 0.231445 9.19693 0.231445 8.62793C0.71196 4.92549 2.64165 2.28453 6.02051 0.705078C6.94375 0.328935 7.89624 0.0877236 8.87793 -0.0185547Z" fill="#FFF16A"/>
<path fill-rule="evenodd" clip-rule="evenodd" d="M9.73145 -0.0185547C10.016 -0.0185547 10.3004 -0.0185547 10.585 -0.0185547C14.2874 0.46196 16.9284 2.39165 18.5078 5.77051C18.884 6.69375 19.1252 7.64624 19.2314 8.62793C19.2314 9.19693 19.2314 9.76596 19.2314 10.335C18.7509 14.0374 16.8212 16.6784 13.4424 18.2578C12.5192 18.634 11.5667 18.8752 10.585 18.9814C10.3004 18.9814 10.016 18.9814 9.73145 18.9814C9.73145 18.2269 9.73145 17.4723 9.73145 16.7178C12.7594 16.5884 14.955 15.1783 16.3184 12.4873C17.4787 9.63352 17.0828 7.02351 15.1309 4.65723C13.6786 3.0902 11.8788 2.28616 9.73145 2.24512C9.73145 1.49056 9.73145 0.736001 9.73145 -0.0185547Z" fill="#FFD401"/>
<path fill-rule="evenodd" clip-rule="evenodd" d="M9.73139 2.24512C9.73139 3.72949 9.73139 5.21387 9.73139 6.69824C9.57278 6.70949 9.4367 6.77135 9.32319 6.88379C8.92623 7.40577 8.51186 7.91294 8.08002 8.40527C7.43287 8.0848 6.78346 7.76937 6.13178 7.45898C5.74666 7.43523 5.524 7.61458 5.46381 7.99707C5.72566 9.33728 6.00398 10.6732 6.29877 12.0049C6.38279 12.1137 6.48796 12.1941 6.6142 12.2461C7.65319 12.2646 8.69225 12.2708 9.73139 12.2646C9.73139 13.749 9.73139 15.2334 9.73139 16.7178C7.06794 16.6304 5.00837 15.48 3.55268 13.2666C2.3267 11.13 2.1659 8.91582 3.07026 6.62402C4.41291 3.83989 6.63328 2.38026 9.73139 2.24512Z" fill="#FFD400"/>
<path fill-rule="evenodd" clip-rule="evenodd" d="M9.73145 2.24512C11.8788 2.28616 13.6786 3.0902 15.1309 4.65723C17.0828 7.02351 17.4787 9.63352 16.3184 12.4873C14.955 15.1783 12.7594 16.5884 9.73145 16.7178C9.73145 15.2334 9.73145 13.749 9.73145 12.2646C10.7829 12.2708 11.8344 12.2646 12.8857 12.2461C13.0527 12.1781 13.1703 12.0605 13.2383 11.8936C13.5038 10.5968 13.7574 9.29798 13.999 7.99707C13.946 7.55577 13.6986 7.37638 13.2568 7.45898C12.6293 7.76966 12.0046 8.08509 11.3828 8.40527C10.9437 7.86719 10.5045 7.3291 10.0654 6.79102C9.96501 6.72021 9.85368 6.6893 9.73145 6.69824C9.73145 5.21387 9.73145 3.72949 9.73145 2.24512Z" fill="#FF9F00"/>
<path fill-rule="evenodd" clip-rule="evenodd" d="M9.73145 6.69824C9.73145 8.55371 9.73145 10.4092 9.73145 12.2646C8.69231 12.2708 7.65325 12.2646 6.61426 12.2461C6.48801 12.1941 6.38284 12.1137 6.29883 12.0049C6.00403 10.6732 5.72571 9.33728 5.46387 7.99707C5.52406 7.61458 5.74671 7.43523 6.13184 7.45898C6.78351 7.76937 7.43293 8.0848 8.08008 8.40527C8.51192 7.91294 8.92628 7.40577 9.32324 6.88379C9.43676 6.77135 9.57284 6.70949 9.73145 6.69824Z" fill="#FFF06A"/>
<path fill-rule="evenodd" clip-rule="evenodd" d="M9.73145 6.69822C9.85368 6.68928 9.96501 6.72019 10.0654 6.79099C10.5045 7.32908 10.9437 7.86717 11.3828 8.40525C12.0046 8.08507 12.6293 7.76964 13.2568 7.45896C13.6986 7.37636 13.946 7.55574 13.999 7.99705C13.7574 9.29796 13.5038 10.5968 13.2383 11.8935C13.1703 12.0605 13.0527 12.1781 12.8857 12.2461C11.8344 12.2646 10.7829 12.2708 9.73145 12.2646C9.73145 10.4092 9.73145 8.55369 9.73145 6.69822Z" fill="#FFD300"/>
</g>
<defs>
<clipPath id="clip0_202_816">
<rect width="19" height="19" fill="white" transform="translate(0.25)"/>
</clipPath>
</defs>
</svg>
