<svg width="36" height="34" viewBox="0 0 36 34" fill="none" xmlns="http://www.w3.org/2000/svg">
<path fill-rule="evenodd" clip-rule="evenodd" d="M2.25 25.5545V20.5625C2.90149 20.9388 3.62004 21.2135 4.38453 21.3656C5.07001 21.5019 5.79647 21.501 6.39936 21.5002H6.47975C14.1599 21.494 21.8402 21.494 29.5204 21.5002H29.6008C30.2036 21.501 30.9301 21.5019 31.6155 21.3656C32.3799 21.2135 33.0985 20.9388 33.75 20.5625V25.5545C33.75 27.027 33.7502 28.2957 33.6063 29.3116C33.452 30.4005 33.1043 31.4442 32.2123 32.2907C31.3205 33.1371 30.2208 33.4674 29.0737 33.6137C28.0032 33.7503 26.6665 33.7502 25.1152 33.7502H10.8848C9.33344 33.7502 7.99678 33.7503 6.92637 33.6137C5.77923 33.4674 4.67962 33.1371 3.78769 32.2907C2.89579 31.4442 2.54799 30.4005 2.39377 29.3116C2.24985 28.2957 2.24992 27.027 2.25 25.5545ZM19.75 26.7502C19.75 25.7836 18.9665 25.0002 18 25.0002C17.0335 25.0002 16.25 25.7836 16.25 26.7502V28.5002C16.25 29.4667 17.0335 30.2502 18 30.2502C18.9665 30.2502 19.75 29.4667 19.75 28.5002V26.7502Z" fill="#F3C73B"/>
<path fill-rule="evenodd" clip-rule="evenodd" d="M6.99424 2.03084C5.41799 3.60709 5.12345 5.72385 5.75665 7.50516C5.3846 7.51403 5.04349 7.53789 4.72589 7.60106C2.64328 8.0153 1.01529 9.64328 0.601031 11.7259C0.499094 12.2384 0.499549 12.8121 0.500074 13.4783L0.500161 13.625L0.500074 13.7718C0.499549 14.438 0.499094 15.0117 0.601031 15.5241C1.01529 17.6068 2.64328 19.2348 4.72589 19.6491C5.23839 19.7509 5.81209 19.7506 6.4783 19.75C14.1594 19.7439 21.8405 19.7439 29.5216 19.75C30.1879 19.7506 30.7617 19.7509 31.2741 19.6491C33.3568 19.2348 34.9848 17.6068 35.399 15.5241C35.5009 15.0117 35.5005 14.4381 35.5 13.7719L35.4998 13.625L35.5 13.4782C35.5005 12.8121 35.5009 12.2383 35.399 11.7259C34.9848 9.64328 33.3568 8.01532 31.2741 7.60106C30.9565 7.53789 30.6154 7.51403 30.2432 7.50516C30.8763 5.72385 30.5818 3.60709 29.0056 2.03084C26.7952 -0.179564 23.1473 0.0145639 21.1906 2.46035L18 6.44865L14.8092 2.46035C12.8527 0.0145639 9.20464 -0.179564 6.99424 2.03084ZM18 9.25003C17.0335 9.25003 16.25 10.0335 16.25 11V14.5C16.25 15.4666 17.0335 16.25 18 16.25C18.9665 16.25 19.75 15.4666 19.75 14.5V11C19.75 10.0335 18.9665 9.25003 18 9.25003ZM10.6997 7.50003C9.15095 7.50003 8.35934 5.61549 9.4691 4.50573C10.2088 3.76604 11.4266 3.83469 12.0762 4.64678L14.3588 7.50003H10.6997ZM25.3001 7.50003C26.8489 7.50003 27.6406 5.61549 26.5307 4.50573C25.791 3.76604 24.5734 3.83469 23.9236 4.64678L21.6411 7.50003H25.3001Z" fill="#F3C73B"/>
</svg>
