<svg width="20" height="17" viewBox="0 0 20 17" fill="none" xmlns="http://www.w3.org/2000/svg">
<path d="M4.5 8.5H0.5C0.367392 8.5 0.240215 8.55268 0.146447 8.64645C0.0526785 8.74021 0 8.86739 0 9V16.5H5V9C5 8.86739 4.94732 8.74021 4.85355 8.64645C4.75979 8.55268 4.63261 8.5 4.5 8.5Z" fill="#F3C73B"/>
<path d="M12 0.5H8C7.86739 0.5 7.74021 0.552679 7.64645 0.646447C7.55268 0.740215 7.5 0.867392 7.5 1V16.5H12.5V1C12.5 0.867392 12.4473 0.740215 12.3536 0.646447C12.2598 0.552679 12.1326 0.5 12 0.5Z" fill="#F3C73B"/>
<path d="M19.5 4.5H15.5C15.3674 4.5 15.2402 4.55268 15.1464 4.64645C15.0527 4.74021 15 4.86739 15 5V16.5H20V5C20 4.86739 19.9473 4.74021 19.8536 4.64645C19.7598 4.55268 19.6326 4.5 19.5 4.5Z" fill="#F3C73B"/>
</svg>
