<svg width="10" height="11" viewBox="0 0 10 11" fill="none" xmlns="http://www.w3.org/2000/svg">
<path d="M0.833344 6.33333C0.833344 4.762 0.833344 3.97631 1.3215 3.48815C1.80966 3 2.59533 3 4.16668 3H5.83334C7.40468 3 8.19039 3 8.67851 3.48815C9.16668 3.97631 9.16668 4.762 9.16668 6.33333C9.16668 7.90467 9.16668 8.69038 8.67851 9.1785C8.19039 9.66667 7.40468 9.66667 5.83334 9.66667H4.16668C2.59533 9.66667 1.80966 9.66667 1.3215 9.1785C0.833344 8.69038 0.833344 7.90467 0.833344 6.33333Z" stroke="#B6B6B6" stroke-width="0.8"/>
<path d="M6.66668 2.99998C6.66668 2.2143 6.66668 1.82147 6.42259 1.57739C6.17851 1.33331 5.78568 1.33331 5.00001 1.33331C4.21434 1.33331 3.8215 1.33331 3.57742 1.57739C3.33334 1.82147 3.33334 2.2143 3.33334 2.99998" stroke="#B6B6B6" stroke-width="0.8"/>
<path d="M5.00002 7.72217C5.46027 7.72217 5.83335 7.41125 5.83335 7.02775C5.83335 6.64421 5.46027 6.33329 5.00002 6.33329C4.53977 6.33329 4.16669 6.02238 4.16669 5.63883C4.16669 5.25533 4.53977 4.94442 5.00002 4.94442M5.00002 7.72217C4.53977 7.72217 4.16669 7.41125 4.16669 7.02775M5.00002 7.72217V7.99996M5.00002 4.94442V4.66663M5.00002 4.94442C5.46027 4.94442 5.83335 5.25533 5.83335 5.63883" stroke="#B6B6B6" stroke-width="0.8" stroke-linecap="round"/>
</svg>
