<svg width="28" height="34" viewBox="0 0 28 34" fill="none" xmlns="http://www.w3.org/2000/svg">
<g filter="url(#filter0_d_2618_6002)">
<path fill-rule="evenodd" clip-rule="evenodd" d="M6.65625 12.1063V9.28125C6.65625 4.15536 10.0561 0 14.25 0C18.4439 0 21.8438 4.15536 21.8438 9.28125V12.1063C23.0979 12.2209 23.9145 12.5098 24.5115 13.2395C25.5 14.4477 25.5 16.3922 25.5 20.2812C25.5 24.1703 25.5 26.1148 24.5115 27.323C23.5229 28.5312 21.9319 28.5312 18.75 28.5312H9.75C6.56802 28.5312 4.97703 28.5312 3.98852 27.323C3 26.1148 3 24.1703 3 20.2812C3 16.3922 3 14.4477 3.98852 13.2395C4.58547 12.5098 5.40216 12.2209 6.65625 12.1063ZM8.34375 9.28125C8.34375 5.29445 10.9881 2.0625 14.25 2.0625C17.5119 2.0625 20.1562 5.29445 20.1562 9.28125V12.0362C19.7254 12.0312 19.2579 12.0312 18.75 12.0312H9.75C9.24205 12.0312 8.77464 12.0312 8.34375 12.0362V9.28125Z" fill="white"/>
</g>
<defs>
<filter id="filter0_d_2618_6002" x="-9" y="-8" width="42.5" height="48.5312" filterUnits="userSpaceOnUse" color-interpolation-filters="sRGB">
<feFlood flood-opacity="0" result="BackgroundImageFix"/>
<feColorMatrix in="SourceAlpha" type="matrix" values="0 0 0 0 0 0 0 0 0 0 0 0 0 0 0 0 0 0 127 0" result="hardAlpha"/>
<feOffset dx="-2" dy="2"/>
<feGaussianBlur stdDeviation="5"/>
<feComposite in2="hardAlpha" operator="out"/>
<feColorMatrix type="matrix" values="0 0 0 0 0 0 0 0 0 0 0 0 0 0 0 0 0 0 0.25 0"/>
<feBlend mode="normal" in2="BackgroundImageFix" result="effect1_dropShadow_2618_6002"/>
<feBlend mode="normal" in="SourceGraphic" in2="effect1_dropShadow_2618_6002" result="shape"/>
</filter>
</defs>
</svg>
