<svg width="20" height="19" viewBox="0 0 20 19" fill="none" xmlns="http://www.w3.org/2000/svg">
<g clip-path="url(#clip0_3_4945)">
<path opacity="0.995" fill-rule="evenodd" clip-rule="evenodd" d="M9.12793 -0.0185547C9.41245 -0.0185547 9.69693 -0.0185547 9.98145 -0.0185547C9.98145 0.736001 9.98145 1.49056 9.98145 2.24512C6.88333 2.38026 4.66297 3.83989 3.32031 6.62402C2.41595 8.91582 2.57676 11.13 3.80273 13.2666C5.25842 15.48 7.31799 16.6304 9.98145 16.7178C9.98145 17.4723 9.98145 18.2269 9.98145 18.9814C9.69693 18.9814 9.41245 18.9814 9.12793 18.9814C5.42542 18.5008 2.78447 16.5712 1.20508 13.1924C0.828935 12.2691 0.587724 11.3167 0.481445 10.335C0.481445 9.76596 0.481445 9.19693 0.481445 8.62793C0.96196 4.92549 2.89165 2.28453 6.27051 0.705078C7.19375 0.328935 8.14624 0.0877236 9.12793 -0.0185547Z" fill="#4B4B4B"/>
<path fill-rule="evenodd" clip-rule="evenodd" d="M9.98145 -0.0185547H10.835C11.6885 0.0922242 12.4857 0.280026 13.2264 0.544851C13.582 0.671989 13.9246 0.816877 14.2542 0.979518C13.9253 0.817207 13.5834 0.672698 13.2285 0.545747L14.0007 3.46678C12.8332 2.68124 11.4935 2.27402 9.98145 2.24512V-0.0185547ZM15.7358 4.48113L15.3806 1.63892C16.8005 2.61445 17.9263 3.99164 18.7578 5.77051C19.134 6.69375 19.3752 7.64624 19.4814 8.62793V10.335C19.0009 14.0374 17.0712 16.6784 13.6924 18.2578C12.7692 18.634 11.8167 18.8752 10.835 18.9814H9.98145V16.7178C13.0094 16.5884 15.205 15.1783 16.5684 12.4873C17.6821 9.74813 17.3621 7.23353 15.6085 4.94349L15.7358 4.48113Z" fill="#2F2F2F"/>
<path fill-rule="evenodd" clip-rule="evenodd" d="M9.98163 2.24512C9.98163 3.72949 9.98163 5.21387 9.98163 6.69824C9.82303 6.70949 9.68695 6.77135 9.57343 6.88379C9.17647 7.40577 8.76211 7.91294 8.33027 8.40527C7.68312 8.0848 7.0337 7.76937 6.38202 7.45898C5.9969 7.43523 5.77425 7.61458 5.71406 7.99707C5.9759 9.33728 6.25422 10.6732 6.54902 12.0049C6.63303 12.1137 6.7382 12.1941 6.86445 12.2461C7.90343 12.2646 8.9425 12.2708 9.98163 12.2646C9.98163 13.749 9.98163 15.2334 9.98163 16.7178C7.31818 16.6304 5.25861 15.48 3.80292 13.2666C2.57695 11.13 2.41614 8.91582 3.3205 6.62402C4.66316 3.83989 6.88352 2.38026 9.98163 2.24512Z" fill="#868686"/>
<path fill-rule="evenodd" clip-rule="evenodd" d="M9.98145 2.24512C11.4803 2.27377 12.8099 2.67418 13.9701 3.44635L14.3019 4.66038L12.6887 6.09434L11.3245 8.02748L10.3154 6.79102C10.215 6.72021 10.1037 6.6893 9.98145 6.69824V2.24512ZM15.0189 6.81132L15.6009 4.93354C17.3612 7.22625 17.6837 9.74416 16.5684 12.4873C15.205 15.1783 13.0094 16.5884 9.98145 16.7178V12.2646C10.1071 12.2654 10.2328 12.266 10.3585 12.2663V13.9811L10.8927 12.2782L10.8962 12.2669C11.6428 12.2662 12.3893 12.2593 13.1357 12.2461C13.3027 12.1781 13.4203 12.0605 13.4883 11.8936C13.7538 10.5968 14.0074 9.29798 14.249 7.99707C14.225 7.79739 14.1613 7.65133 14.0577 7.55891L15.0189 6.81132Z" fill="#474747"/>
<path fill-rule="evenodd" clip-rule="evenodd" d="M9.98145 6.69824C9.98145 8.55371 9.98145 10.4092 9.98145 12.2646C8.94231 12.2708 7.90325 12.2646 6.86426 12.2461C6.73801 12.1941 6.63284 12.1137 6.54883 12.0049C6.25403 10.6732 5.97571 9.33728 5.71387 7.99707C5.77406 7.61458 5.99671 7.43523 6.38184 7.45898C7.03351 7.76937 7.68293 8.0848 8.33008 8.40527C8.76192 7.91294 9.17628 7.40577 9.57324 6.88379C9.68676 6.77135 9.82284 6.70949 9.98145 6.69824Z" fill="#A7A7A7"/>
<path fill-rule="evenodd" clip-rule="evenodd" d="M10.3154 6.79106C10.215 6.72025 10.1037 6.68934 9.98145 6.69828V12.2647C10.1071 12.2654 10.2328 12.266 10.3585 12.2664V9.32078L11.3249 8.02795L10.3154 6.79106ZM14.0677 7.56816L11.7925 9.32078L10.8962 12.267C11.6428 12.2663 12.3893 12.2593 13.1357 12.2461C13.3027 12.1781 13.4203 12.0606 13.4883 11.8936C13.7538 10.5968 14.0074 9.29802 14.249 7.99711C14.2258 7.80394 14.1654 7.66096 14.0677 7.56816Z" fill="#CBCBCB"/>
</g>
<defs>
<clipPath id="clip0_3_4945">
<rect width="19" height="19" fill="white" transform="translate(0.5)"/>
</clipPath>
</defs>
</svg>
