<svg width="14" height="10" viewBox="0 0 14 10" fill="none" xmlns="http://www.w3.org/2000/svg">
<path fill-rule="evenodd" clip-rule="evenodd" d="M6.99674 7.04171C8.12432 7.04171 9.0384 6.12762 9.0384 5.00004C9.0384 3.87246 8.12432 2.95837 6.99674 2.95837C5.86915 2.95837 4.95506 3.87246 4.95506 5.00004C4.95506 6.12762 5.86915 7.04171 6.99674 7.04171ZM6.99674 5.87177C6.51531 5.87177 6.125 5.48147 6.125 5.00004C6.125 4.51862 6.51531 4.12831 6.99674 4.12831C7.47816 4.12831 7.86847 4.51862 7.86847 5.00004C7.86847 5.48147 7.47816 5.87177 6.99674 5.87177Z" fill="white"/>
<path fill-rule="evenodd" clip-rule="evenodd" d="M7 0.916687C4.19346 0.916687 2.28474 2.43863 1.27709 3.52989C0.500145 4.3713 0.500145 5.62874 1.27709 6.47014C2.28474 7.56144 4.19346 9.08335 7 9.08335C9.80653 9.08335 11.7153 7.56144 12.7229 6.47014C13.4998 5.62874 13.4998 4.3713 12.7229 3.52989C11.7153 2.43863 9.80653 0.916687 7 0.916687ZM2.13423 4.32137C3.02652 3.35503 4.64736 2.08335 7 2.08335C9.35264 2.08335 10.9735 3.35503 11.8658 4.32137C12.23 4.71582 12.23 5.28422 11.8658 5.67867C10.9735 6.64502 9.35264 7.91669 7 7.91669C4.64736 7.91669 3.02652 6.64502 2.13423 5.67867C1.76998 5.28422 1.76998 4.71582 2.13423 4.32137Z" fill="white"/>
</svg>
