<svg width="12" height="12" viewBox="0 0 12 12" fill="none" xmlns="http://www.w3.org/2000/svg">
<path fill-rule="evenodd" clip-rule="evenodd" d="M6.00766 12C9.24912 12 11.8769 9.37223 11.8769 6.13077C11.8769 2.88928 9.24912 0.261536 6.00766 0.261536C2.76617 0.261536 0.138428 2.88928 0.138428 6.13077C0.138428 9.37223 2.76617 12 6.00766 12ZM6.44785 4.37C6.44785 4.12689 6.25076 3.92981 6.00766 3.92981C5.76456 3.92981 5.56747 4.12689 5.56747 4.37V5.69058H4.24689C4.00378 5.69058 3.8067 5.88766 3.8067 6.13077C3.8067 6.37387 4.00378 6.57096 4.24689 6.57096H5.56747V7.89154C5.56747 8.13464 5.76456 8.33173 6.00766 8.33173C6.25076 8.33173 6.44785 8.13464 6.44785 7.89154V6.57096H7.76843C8.01153 6.57096 8.20862 6.37387 8.20862 6.13077C8.20862 5.88766 8.01153 5.69058 7.76843 5.69058H6.44785V4.37Z" fill="#0ECB81"/>
<path d="M6.44785 4.37C6.44785 4.12689 6.25076 3.92981 6.00766 3.92981C5.76456 3.92981 5.56747 4.12689 5.56747 4.37V5.69058H4.24689C4.00378 5.69058 3.8067 5.88766 3.8067 6.13077C3.8067 6.37387 4.00378 6.57096 4.24689 6.57096H5.56747V7.89154C5.56747 8.13464 5.76456 8.33173 6.00766 8.33173C6.25076 8.33173 6.44785 8.13464 6.44785 7.89154V6.57096H7.76843C8.01153 6.57096 8.20862 6.37387 8.20862 6.13077C8.20862 5.88766 8.01153 5.69058 7.76843 5.69058H6.44785V4.37Z" fill="#F3C73B"/>
<path d="M6.44785 4.37C6.44785 4.12689 6.25076 3.92981 6.00766 3.92981C5.76456 3.92981 5.56747 4.12689 5.56747 4.37V5.69058H4.24689C4.00378 5.69058 3.8067 5.88766 3.8067 6.13077C3.8067 6.37387 4.00378 6.57096 4.24689 6.57096H5.56747V7.89154C5.56747 8.13464 5.76456 8.33173 6.00766 8.33173C6.25076 8.33173 6.44785 8.13464 6.44785 7.89154V6.57096H7.76843C8.01153 6.57096 8.20862 6.37387 8.20862 6.13077C8.20862 5.88766 8.01153 5.69058 7.76843 5.69058H6.44785V4.37Z" fill="white"/>
</svg>
