<svg width="16" height="16" viewBox="0 0 16 16" fill="none" xmlns="http://www.w3.org/2000/svg">
<g clip-path="url(#clip0_4681_42)">
<path fill-rule="evenodd" clip-rule="evenodd" d="M8.5232 0.299988C9.21594 0.299988 9.81114 0.776973 9.94147 1.43663L9.9994 1.72997C10.2272 2.88295 11.4573 3.57148 12.6011 3.18627L12.8922 3.08822C13.5466 2.86783 14.2703 3.12905 14.6166 3.7107L15.1398 4.58924C15.4862 5.17091 15.3577 5.90911 14.8336 6.34835L14.6005 6.5437C13.6845 7.31147 13.6845 8.68853 14.6005 9.45627L14.8336 9.6516C15.3577 10.0909 15.4862 10.8291 15.1398 11.4107L14.6167 12.2893C14.2703 12.8709 13.5466 13.1321 12.8921 12.9117L12.6011 12.8137C11.4573 12.4284 10.2272 13.1169 9.9994 14.27L9.94147 14.5633C9.81114 15.223 9.21594 15.7 8.5232 15.7H7.4768C6.78407 15.7 6.18888 15.223 6.05854 14.5634L6.00055 14.2699C5.77273 13.1169 4.54264 12.4284 3.39882 12.8137L3.10786 12.9117C2.45344 13.1321 1.72977 12.8709 1.38337 12.2892L0.860205 11.4107C0.513818 10.8291 0.642302 10.0909 1.16638 9.6516L1.39948 9.45627C2.3155 8.68847 2.3155 7.31147 1.39948 6.54373L1.16638 6.34836C0.642302 5.90911 0.513818 5.17092 0.860205 4.58927L1.38339 3.71072C1.72978 3.12906 2.45343 2.86784 3.10784 3.08824L3.39888 3.18626C4.54268 3.57148 5.77273 2.88299 6.00055 1.73004L6.05854 1.43658C6.18888 0.776947 6.78401 0.299988 7.4768 0.299988H8.5232ZM8 10.2C9.215 10.2 10.2 9.215 10.2 8C10.2 6.78493 9.215 5.79999 8 5.79999C6.78494 5.79999 5.79998 6.78493 5.79998 8C5.79998 9.215 6.78494 10.2 8 10.2Z" fill="white"/>
</g>
<defs>
<clipPath id="clip0_4681_42">
<rect width="16" height="16" fill="white"/>
</clipPath>
</defs>
</svg>
