<svg width="18" height="18" viewBox="0 0 18 18" fill="none" xmlns="http://www.w3.org/2000/svg">
<path fill-rule="evenodd" clip-rule="evenodd" d="M15.6931 2.71291C15.6568 2.6251 15.603 2.5428 15.5319 2.47127C15.5308 2.4702 15.5298 2.46914 15.5287 2.46809C15.3932 2.3333 15.2063 2.25 15 2.25H10.5C10.0858 2.25 9.75 2.58579 9.75 3C9.75 3.41421 10.0858 3.75 10.5 3.75H13.1894L7.71968 9.21968C7.42678 9.51255 7.42678 9.98745 7.71968 10.2803C8.01255 10.5732 8.48745 10.5732 8.78032 10.2803L14.25 4.81066V7.5C14.25 7.91423 14.5858 8.25 15 8.25C15.4142 8.25 15.75 7.91423 15.75 7.5V3.00052C15.75 2.99959 15.75 2.99867 15.75 2.99775C15.7497 2.9008 15.7307 2.8039 15.6931 2.71291ZM2.25 6C2.25 3.92894 3.92894 2.25 6 2.25H6.75C7.16421 2.25 7.5 2.58579 7.5 3C7.5 3.41421 7.16421 3.75 6.75 3.75H6C4.75736 3.75 3.75 4.75736 3.75 6V12C3.75 13.2427 4.75736 14.25 6 14.25H12C13.2427 14.25 14.25 13.2427 14.25 12V11.25C14.25 10.8358 14.5858 10.5 15 10.5C15.4142 10.5 15.75 10.8358 15.75 11.25V12C15.75 14.071 14.071 15.75 12 15.75H6C3.92894 15.75 2.25 14.071 2.25 12V6Z" fill="#F3C73B"/>
</svg>
