<svg width="17" height="18" viewBox="0 0 17 18" fill="none" xmlns="http://www.w3.org/2000/svg">
<path d="M1.65691 11.9229C2.10926 14.1846 2.33543 15.3154 3.08278 16.0439C3.22091 16.1784 3.37034 16.301 3.52943 16.41C4.39021 17 5.54349 17 7.85005 17H9.28407C11.5907 17 12.7439 17 13.6047 16.41C13.7638 16.301 13.9132 16.1784 14.0514 16.0439C14.7987 15.3154 15.0249 14.1846 15.4773 11.9229C16.1267 8.67569 16.4514 7.05208 15.7039 5.9016C15.5685 5.69329 15.4106 5.50059 15.2329 5.32703C14.2513 4.36841 12.5956 4.36841 9.28407 4.36841H7.85005C4.53857 4.36841 2.88284 4.36841 1.90131 5.32703C1.72359 5.50059 1.56561 5.69329 1.43026 5.9016C0.68276 7.05208 1.00748 8.67569 1.65691 11.9229Z" stroke="white"/>
<path d="M11.0936 8.57892C11.5587 8.57892 11.9357 8.2019 11.9357 7.73682C11.9357 7.27174 11.5587 6.89471 11.0936 6.89471C10.6285 6.89471 10.2515 7.27174 10.2515 7.73682C10.2515 8.2019 10.6285 8.57892 11.0936 8.57892Z" fill="white"/>
<path d="M6.04084 8.57892C6.50592 8.57892 6.88294 8.2019 6.88294 7.73682C6.88294 7.27174 6.50592 6.89471 6.04084 6.89471C5.57575 6.89471 5.19873 7.27174 5.19873 7.73682C5.19873 8.2019 5.57575 8.57892 6.04084 8.57892Z" fill="white"/>
<path d="M6.04053 4.36842V3.52632C6.04053 2.13107 7.17156 1 8.56684 1C9.96213 1 11.0932 2.13107 11.0932 3.52632V4.36842" stroke="white" stroke-linecap="round"/>
</svg>
