<svg width="24" height="24" viewBox="0 0 24 24" fill="none" xmlns="http://www.w3.org/2000/svg">
<path d="M4.65691 14.9229C5.10926 17.1846 5.33543 18.3154 6.08278 19.0439C6.22091 19.1784 6.37034 19.301 6.52943 19.41C7.39021 20 8.54349 20 10.8501 20H12.2841C14.5907 20 15.7439 20 16.6047 19.41C16.7638 19.301 16.9132 19.1784 17.0514 19.0439C17.7987 18.3154 18.0249 17.1846 18.4773 14.9229C19.1267 11.6757 19.4514 10.0521 18.7039 8.9016C18.5685 8.69329 18.4106 8.50059 18.2329 8.32703C17.2513 7.36841 15.5956 7.36841 12.2841 7.36841H10.8501C7.53857 7.36841 5.88284 7.36841 4.90131 8.32703C4.72359 8.50059 4.56561 8.69329 4.43026 8.9016C3.68276 10.0521 4.00748 11.6757 4.65691 14.9229Z" stroke="white"/>
<path d="M14.0936 11.5789C14.5587 11.5789 14.9357 11.2019 14.9357 10.7368C14.9357 10.2717 14.5587 9.89471 14.0936 9.89471C13.6285 9.89471 13.2515 10.2717 13.2515 10.7368C13.2515 11.2019 13.6285 11.5789 14.0936 11.5789Z" fill="white"/>
<path d="M9.04084 11.5789C9.50592 11.5789 9.88294 11.2019 9.88294 10.7368C9.88294 10.2717 9.50592 9.89471 9.04084 9.89471C8.57575 9.89471 8.19873 10.2717 8.19873 10.7368C8.19873 11.2019 8.57575 11.5789 9.04084 11.5789Z" fill="white"/>
<path d="M9.04053 7.36842V6.52632C9.04053 5.13107 10.1716 4 11.5668 4C12.9621 4 14.0932 5.13107 14.0932 6.52632V7.36842" stroke="white" stroke-linecap="round"/>
</svg>
