<svg width="23" height="19" viewBox="0 0 23 19" fill="none" xmlns="http://www.w3.org/2000/svg">
<path d="M11.5 18.9583L0.958374 8.65626L4.79171 0.270844H18.2084L22.0417 8.65626L11.5 18.9583Z" fill="#4DB6AC"/>
<path d="M18.2083 8.41666C18.2083 7.72857 15.9509 7.15405 12.9375 7.01318V5.54166H16.7708V2.66666H6.22913V5.54166H10.0625V7.01318C7.04898 7.15405 4.79163 7.72857 4.79163 8.41666C4.79163 9.10474 7.04898 9.67926 10.0625 9.82014V15.125H12.9375V9.82014C15.9509 9.67926 18.2083 9.10474 18.2083 8.41666ZM11.5 9.37499C8.32452 9.37499 5.74996 8.89247 5.74996 8.29686C5.74996 7.7947 7.58373 7.37399 10.0625 7.2542V8.85749C10.5225 8.88624 11.0016 8.89582 11.5 8.89582C11.9983 8.89582 12.4775 8.88624 12.9375 8.85749V7.2542C15.4162 7.37399 17.25 7.7947 17.25 8.29686C17.25 8.89247 14.6754 9.37499 11.5 9.37499Z" fill="white"/>
</svg>
