<svg width="16" height="15" viewBox="0 0 16 15" fill="none" xmlns="http://www.w3.org/2000/svg">
<path fill-rule="evenodd" clip-rule="evenodd" d="M2.80901 2.30168C5.65551 -0.540802 10.2828 -0.510577 13.1467 2.35334C16.0118 5.21848 16.0408 9.84848 13.1947 12.6947C10.3484 15.5408 5.71845 15.5118 2.8533 12.6467C1.15542 10.9488 0.45428 8.63242 0.755352 6.4359C0.79754 6.1281 1.08125 5.91283 1.38903 5.95502C1.69681 5.9972 1.91211 6.28087 1.86993 6.58867C1.61495 8.4489 2.20836 10.4107 3.6488 11.8512C6.08216 14.2846 9.9998 14.2984 12.3991 11.8991C14.7984 9.4998 14.7845 5.58219 12.3511 3.14883C9.91902 0.716708 6.00417 0.701543 3.60451 3.09718L4.16529 3.1C4.47594 3.10156 4.72651 3.35466 4.72495 3.66532C4.72339 3.97598 4.47029 4.22654 4.15963 4.22498L2.25047 4.21539C1.94202 4.21384 1.69236 3.96417 1.6908 3.65573L1.68121 1.74656C1.67964 1.43591 1.93022 1.1828 2.24088 1.18124C2.55153 1.17968 2.80464 1.43025 2.8062 1.74091L2.80901 2.30168ZM7.99992 3.93744C8.31057 3.93744 8.56242 4.18928 8.56242 4.49994V7.26697L10.2726 8.9772C10.4923 9.19687 10.4923 9.55305 10.2726 9.77265C10.053 9.99232 9.6968 9.99232 9.4772 9.77265L7.43742 7.73295V4.49994C7.43742 4.18928 7.68927 3.93744 7.99992 3.93744Z" fill="#F3C73B"/>
</svg>
