<svg width="24" height="24" viewBox="0 0 24 24" fill="none" xmlns="http://www.w3.org/2000/svg">
<path d="M12 8V12L14.5 14.5" fill="white"/>
<path d="M12 8V12L14.5 14.5" stroke="white" stroke-width="1.5" stroke-linecap="round" stroke-linejoin="round"/>
<path d="M4.33779 6.87053L3.5878 6.8743C3.58987 7.28557 3.92275 7.61845 4.33402 7.62052L4.33779 6.87053ZM6.87957 7.63331C7.29378 7.6354 7.63125 7.3013 7.63333 6.88709C7.63541 6.47288 7.30132 6.13541 6.88711 6.13333L6.87957 7.63331ZM5.07499 4.32121C5.07291 3.907 4.73544 3.57291 4.32123 3.57499C3.90702 3.57707 3.57293 3.91454 3.57501 4.32875L5.07499 4.32121ZM3.82664 10.7849C3.88289 10.3745 3.59581 9.99628 3.18543 9.94003C2.77506 9.88378 2.39678 10.1708 2.34053 10.5812L3.82664 10.7849ZM18.8622 5.13778C15.042 1.31759 8.86876 1.2789 5.07384 5.07382L6.1345 6.13448C9.33361 2.93537 14.5571 2.95396 17.8016 6.19844L18.8622 5.13778ZM5.1378 18.8622C8.95799 22.6824 15.1313 22.7211 18.9262 18.9262L17.8655 17.8655C14.6664 21.0646 9.44294 21.0461 6.19846 17.8016L5.1378 18.8622ZM18.9262 18.9262C22.7211 15.1313 22.6824 8.95797 18.8622 5.13778L17.8016 6.19844C21.0461 9.44292 21.0646 14.6664 17.8655 17.8655L18.9262 18.9262ZM5.07384 5.07382L3.80746 6.3402L4.86812 7.40086L6.1345 6.13448L5.07384 5.07382ZM4.33402 7.62052L6.87957 7.63331L6.88711 6.13333L4.34156 6.12054L4.33402 7.62052ZM5.08778 6.86676L5.07499 4.32121L3.57501 4.32875L3.5878 6.8743L5.08778 6.86676ZM2.34053 10.5812C1.9391 13.5099 2.87395 16.5984 5.1378 18.8622L6.19846 17.8016C4.27788 15.881 3.48666 13.2652 3.82664 10.7849L2.34053 10.5812Z" fill="white"/>
</svg>
