<svg width="10" height="11" viewBox="0 0 10 11" fill="none" xmlns="http://www.w3.org/2000/svg">
<path fill-rule="evenodd" clip-rule="evenodd" d="M5 2.58337C3.10259 2.58337 1.5625 4.12346 1.5625 6.02087C1.5625 7.91829 3.10259 9.45837 5 9.45837C6.89742 9.45837 8.4375 7.91829 8.4375 6.02087C8.4375 4.12346 6.89742 2.58337 5 2.58337ZM0.9375 6.02087C0.9375 3.77829 2.75741 1.95837 5 1.95837C7.24258 1.95837 9.0625 3.77829 9.0625 6.02087C9.0625 8.26346 7.24258 10.0834 5 10.0834C2.75741 10.0834 0.9375 8.26346 0.9375 6.02087Z" fill="#B6B6B6"/>
<path fill-rule="evenodd" clip-rule="evenodd" d="M3.4375 1.22919C3.4375 1.40178 3.57741 1.54169 3.75 1.54169H6.25C6.42258 1.54169 6.5625 1.40178 6.5625 1.22919C6.5625 1.0566 6.42258 0.916687 6.25 0.916687L3.75 0.916687C3.57741 0.916687 3.4375 1.0566 3.4375 1.22919Z" fill="#B6B6B6"/>
<path fill-rule="evenodd" clip-rule="evenodd" d="M5 3.625C5.17258 3.625 5.3125 3.76491 5.3125 3.9375V6.02083C5.3125 6.19342 5.17258 6.33333 5 6.33333C4.82742 6.33333 4.6875 6.19342 4.6875 6.02083V3.9375C4.6875 3.76491 4.82742 3.625 5 3.625Z" fill="#B6B6B6"/>
</svg>
