<svg width="14" height="15" viewBox="0 0 14 15" fill="none" xmlns="http://www.w3.org/2000/svg">
<g clip-path="url(#clip0_3230_14283)">
<path d="M7 14.22C10.866 14.22 14 11.2114 14 7.50003C14 3.78868 10.866 0.780029 7 0.780029C3.13401 0.780029 0 3.78868 0 7.50003C0 11.2114 3.13401 14.22 7 14.22Z" fill="#1E78FF"/>
<path d="M6.47063 10.4401H5.684L5.21063 8.65506L6.36781 8.07462L6.7445 9.10782L7.02494 7.74492L8.56275 6.97338L8.47788 7.3833L9.366 7.39128C9.709 7.38624 9.97456 7.27494 10.1636 7.05822C10.3526 6.84108 10.4423 6.55002 10.4326 6.18336C10.4311 6.13616 10.426 6.08914 10.4173 6.04266L11.6117 5.44332C11.7771 5.73522 11.8401 6.0792 11.8016 6.47442C11.7377 7.05066 11.4778 7.51182 11.0233 7.85748C10.5687 8.20356 9.989 8.3766 9.28506 8.3766L8.27619 8.3724L7.84875 10.4401H6.47063ZM6.65481 5.82426H7.42044L6.2405 7.43076L3.32675 8.89278L4.4065 7.42698L3.36875 4.56006H4.89125L5.42938 6.57144L5.88963 5.82384L6.71125 4.56006H7.68031L9.92294 4.56426C10.4326 4.5777 10.8504 4.70748 11.1768 4.9536L9.95181 5.56848C9.92173 5.56312 9.89134 5.55947 9.86081 5.55756L8.85719 5.54916L8.72594 6.18336L7.18725 6.95532L7.42 5.82384L6.65481 5.82426ZM2.53137 9.9999L4.86194 8.8302L3.83469 10.4401H2.1875L2.52306 9.98436L2.53137 9.9999Z" fill="white"/>
</g>
<defs>
<clipPath id="clip0_3230_14283">
<rect width="14" height="14" fill="white" transform="translate(0 0.5)"/>
</clipPath>
</defs>
</svg>
