<svg width="102" height="16" viewBox="0 0 102 16" fill="none" xmlns="http://www.w3.org/2000/svg">
<path d="M29.0528 0.989258C29.259 0.943743 29.5368 0.983804 29.8087 1.11523C29.8302 1.12577 29.8505 1.13817 29.8712 1.14941C29.8474 1.25759 29.8341 1.36993 29.8341 1.48535C29.8341 1.62668 29.8546 1.76352 29.8897 1.89355C29.8542 1.92348 29.8177 1.95344 29.7784 1.98145C29.5313 2.15583 29.2635 2.24125 29.0528 2.22949L28.5557 3.39844L28.5323 3.41602L28.5489 3.41504L28.5431 3.43066L28.5655 3.41406L29.8233 3.34766C29.886 3.14367 30.0568 2.91946 30.3038 2.74512C30.3349 2.72294 30.3669 2.70267 30.3985 2.68359C30.5435 2.80287 30.7106 2.89491 30.8927 2.9541L30.8985 3.08105C30.8985 3.38585 30.814 3.65694 30.6847 3.8252L31.3497 4.90625V4.93652L31.3585 4.9209L31.3673 4.93555V4.90723L32.0323 3.82617C31.9024 3.65741 31.8184 3.38632 31.8184 3.08203L31.8233 2.95508C32.0051 2.89637 32.1715 2.80416 32.3165 2.68555C32.3474 2.70425 32.3788 2.72345 32.4093 2.74512L32.4102 2.74414C32.6573 2.91852 32.828 3.14363 32.8907 3.34766L34.1446 3.41309L34.17 3.43066L34.1622 3.41309L34.1817 3.41504L34.1554 3.39648L33.6602 2.22949C33.4495 2.24124 33.1818 2.15582 32.9347 1.98145C32.8969 1.95455 32.8615 1.92616 32.8272 1.89746C32.8631 1.7662 32.8848 1.62817 32.8848 1.48535C32.8848 1.36673 32.8699 1.25156 32.8448 1.14062C32.8604 1.13239 32.8756 1.12308 32.8917 1.11523C33.1635 0.983852 33.4414 0.94375 33.6475 0.989258L34.2706 0H44.2843C44.338 0.120444 44.4074 0.234169 44.4942 0.335938C44.1366 0.627932 43.9034 1.10499 43.9034 1.64355V1.67773C43.7523 1.64808 43.6075 1.57676 43.4825 1.45996C43.114 1.11618 43.0465 0.504959 43.3038 0.0332031C43.047 0.0966052 42.806 0.255541 42.6261 0.503906C42.2002 1.09142 42.2749 1.95997 42.7931 2.44336C43.1928 2.81678 43.7403 2.85169 44.1651 2.57715C44.2659 2.7376 44.3926 2.87509 44.5372 2.98438V2.98535C44.5694 3.00972 44.6028 3.03235 44.6368 3.05371C44.6538 3.06436 44.6712 3.07412 44.6886 3.08398C44.7157 3.09943 44.7435 3.11348 44.7716 3.12695C44.7957 3.13849 44.82 3.14914 44.8448 3.15918C44.8816 3.17415 44.9189 3.1877 44.9571 3.19922C44.9669 3.20216 44.9766 3.2053 44.9864 3.20801C45.0302 3.22008 45.0749 3.22901 45.1202 3.23633C45.1387 3.23931 45.1572 3.24198 45.1759 3.24414C45.1882 3.24557 45.2005 3.24796 45.213 3.24902L45.3214 3.25391C45.3756 3.25389 45.4298 3.25053 45.4825 3.24414C45.4379 3.39798 45.3604 3.5411 45.252 3.66016C45.1752 3.74442 45.088 3.80998 44.9952 3.85742C44.9649 3.87293 44.9339 3.88586 44.9024 3.89746C44.857 3.9142 44.8108 3.92689 44.7638 3.93555C44.6811 3.95074 44.597 3.95395 44.5128 3.94434C44.4082 3.93246 44.3041 3.90226 44.2052 3.85254C44.2018 3.85084 44.1988 3.84842 44.1954 3.84668C44.1482 3.82225 44.1021 3.79377 44.0577 3.76074H44.0567C44.0316 3.74201 44.0065 3.72167 43.9825 3.7002C43.9974 3.86633 44.0402 4.03012 44.1085 4.18262C44.113 4.19273 44.1174 4.20288 44.1222 4.21289C44.1454 4.26178 44.1714 4.30937 44.2003 4.35547C44.2034 4.36044 44.2069 4.36518 44.21 4.37012C44.2429 4.42109 44.2787 4.47093 44.3184 4.51758C44.7849 5.06403 45.5526 5.07806 46.0343 4.54883C46.3062 4.25016 46.4284 3.84252 46.3995 3.44531C46.385 3.24513 46.3328 3.04753 46.2413 2.86816C46.546 2.57267 46.7393 2.13429 46.7393 1.64355C46.7393 1.63114 46.7376 1.61879 46.7374 1.60645C46.7318 1.32445 46.6637 1.06047 46.546 0.832031L46.6397 0.834961C46.8573 0.854606 47.0656 0.957719 47.2257 1.14551C47.376 1.32199 47.4596 1.54468 47.4776 1.77637C47.4968 2.02335 47.4422 2.28022 47.3145 2.50098L47.2608 2.58496C47.5222 2.55471 47.7771 2.42843 47.9806 2.20508C48.2237 1.93791 48.3478 1.5834 48.3507 1.22754C48.3533 0.922209 48.267 0.615558 48.0909 0.362305L48.0089 0.256836V0.255859C47.9192 0.150725 47.8179 0.0656788 47.71 0H60.7667L60.2393 1.07422H60.2677L60.7481 2.30957C60.6474 2.40678 60.5706 2.52901 60.5274 2.66602L59.1681 2.5498C59.1638 2.5359 59.1603 2.52132 59.1554 2.50684L57.3497 4.90625L60.4757 4.70898C60.4714 4.70206 60.4665 4.69483 60.461 4.68848L61.0528 3.72168C61.1413 3.75314 61.2359 3.77145 61.335 3.77148C61.4582 3.77148 61.5752 3.74472 61.6807 3.69727L62.297 4.67773C62.2897 4.6875 62.2828 4.69767 62.2755 4.70801L65.3477 4.93359L65.3497 4.93652V4.93457L63.545 2.50586C63.5401 2.52022 63.535 2.53447 63.5313 2.54883L62.1427 2.66699C62.1026 2.53925 62.0332 2.42483 61.9425 2.33105L62.4317 1.0752H62.461L62.46 1.07422H62.461L61.8429 0H78.6534C78.3608 0.0436593 78.0793 0.17481 77.8565 0.396484C77.3191 0.931576 77.3203 1.78337 77.8516 2.31738C77.4344 2.60935 77.1623 3.08647 77.1622 3.625V3.65918C76.9859 3.62949 76.8168 3.55827 76.671 3.44141C76.2411 3.09762 76.1618 2.4864 76.462 2.01465C76.1625 2.07807 75.8818 2.23701 75.672 2.48535C75.1752 3.07274 75.2621 3.94136 75.8663 4.4248C76.3327 4.79825 76.9722 4.83315 77.4679 4.55859C77.5855 4.71915 77.7326 4.85747 77.9015 4.9668H77.9024C77.9415 4.99214 77.9822 5.01502 78.0235 5.03711C78.0406 5.04622 78.0578 5.05494 78.0753 5.06348C78.0861 5.06879 78.0965 5.07499 78.1075 5.08008L78.2237 5.12988C78.2301 5.13226 78.2369 5.13344 78.2432 5.13574C78.2913 5.15308 78.3406 5.16768 78.3907 5.18066C78.4024 5.18369 78.4141 5.18667 78.4259 5.18945C78.4812 5.20252 78.5375 5.21322 78.5948 5.2207C78.6071 5.22231 78.6195 5.22327 78.6319 5.22461C78.6821 5.23003 78.7328 5.23245 78.7843 5.2334C78.7949 5.2336 78.8058 5.23633 78.8165 5.23633C78.8798 5.23632 78.9425 5.23197 79.004 5.22559L78.9581 5.33887C78.905 5.44981 78.8304 5.5532 78.7354 5.64258C78.6719 5.70227 78.602 5.7518 78.5284 5.79297C78.33 5.90409 78.1017 5.94761 77.8751 5.92578C77.7097 5.90995 77.5457 5.85967 77.3956 5.77441C77.3473 5.74698 77.2999 5.71617 77.255 5.68164C77.2601 5.73033 77.2689 5.77909 77.2794 5.82715V5.82812C77.2797 5.82967 77.28 5.83147 77.2804 5.83301C77.3202 6.01262 77.3971 6.1861 77.5118 6.3418C77.5148 6.34588 77.5185 6.34945 77.5216 6.35352C77.5594 6.40377 77.6008 6.45299 77.6466 6.49902C77.8846 6.73804 78.1897 6.87566 78.505 6.91016L78.6407 6.91797C78.7766 6.92015 78.913 6.90392 79.045 6.86816C79.2648 6.80863 79.473 6.69647 79.6485 6.53125C80.1247 6.0831 80.2081 5.38824 79.8917 4.85352C79.891 4.85232 79.8904 4.85081 79.8897 4.84961C80.2453 4.55411 80.4718 4.11576 80.4718 3.625C80.4717 3.54839 80.4649 3.47317 80.4542 3.39941C80.4236 3.1882 80.3515 2.9902 80.2452 2.81348C80.5376 2.80882 80.8257 2.91231 81.0391 3.12695C81.1841 3.27284 81.2753 3.45062 81.3145 3.63867C81.3799 3.95217 81.2999 4.29421 81.0792 4.56641V4.56738C81.3841 4.53713 81.6816 4.40989 81.919 4.18652C82.2639 3.8617 82.402 3.40802 82.3321 2.97949C82.2882 2.70965 82.1624 2.44959 81.9522 2.23828C81.6801 1.96483 81.3195 1.82412 80.9571 1.81836C80.5948 1.81261 80.2303 1.94144 79.9493 2.20605C79.9022 2.25017 79.8602 2.29696 79.8214 2.3457C79.5428 2.13817 79.1948 2.01469 78.8165 2.01465C78.7059 2.01465 78.5982 2.02556 78.4942 2.0459C78.4799 1.76035 78.5783 1.47537 78.794 1.26074C79.1832 0.874015 79.8152 0.84937 80.2725 1.18066C80.233 0.884711 80.0955 0.599447 79.8595 0.375C79.6403 0.166312 79.3686 0.0424914 79.087 0H97.3497C99.5588 0 101.35 1.79086 101.35 4V12C101.35 12.3954 101.292 12.777 101.185 13.1377C101.161 13.1493 101.138 13.1625 101.113 13.1729L101.028 13.2031C100.917 13.1177 100.784 13.0531 100.637 13.0166H100.647C100.644 12.9889 100.643 12.9606 100.643 12.9316C100.643 12.7576 100.699 12.6029 100.785 12.5068L100.342 11.8877V11.8721L100.336 11.8799L100.33 11.8721V11.8877L99.8868 12.5068C99.9733 12.6033 100.029 12.7579 100.029 12.9316L100.024 13.0166H100.076C99.9251 13.0541 99.7884 13.121 99.6749 13.21L99.6778 13.2061H99.6768C99.647 13.1964 99.6169 13.1854 99.587 13.1729C99.4057 13.0977 99.2688 12.9872 99.2061 12.8779L98.3731 12.957L98.3556 12.9502L98.3614 12.958L98.3497 12.96L98.3682 12.9668L98.8184 13.5811C98.9559 13.555 99.1411 13.5773 99.3223 13.6523C99.3367 13.6584 99.3505 13.6654 99.3643 13.6719C99.3485 13.7338 99.3399 13.7982 99.3399 13.8643C99.3399 13.9451 99.3526 14.0233 99.3761 14.0977C99.3525 14.1146 99.3279 14.1316 99.3018 14.1475C99.1372 14.247 98.9589 14.2958 98.8184 14.2891L98.4874 14.957L98.4718 14.9668L98.4825 14.9658L98.4786 14.9756L98.4942 14.9648L99.3321 14.9277C99.374 14.8113 99.488 14.6835 99.6524 14.584C99.673 14.5715 99.6941 14.5596 99.7149 14.5488C99.8114 14.6169 99.9229 14.6692 100.044 14.7031C100.046 14.7269 100.049 14.7507 100.049 14.7754C100.049 14.8471 100.037 14.9152 100.02 14.9775C99.3115 15.6128 98.3759 16 97.3497 16H78.3487C78.4036 15.8292 78.4165 15.6488 78.3897 15.4727C78.3677 15.3274 78.3193 15.1846 78.2413 15.0537C78.546 14.8004 78.7393 14.4245 78.7393 14.0039C78.7393 13.8017 78.6929 13.6106 78.6124 13.4375C78.5919 13.3935 78.5709 13.35 78.546 13.3086C78.7965 13.3046 79.0427 13.3933 79.2257 13.5771C79.3758 13.7282 79.4584 13.919 79.4766 14.1172C79.4961 14.3292 79.4424 14.5497 79.3145 14.7393L79.2608 14.8115C79.5222 14.7856 79.7771 14.6768 79.9806 14.4854C80.2744 14.2085 80.3936 13.8225 80.336 13.457C80.2993 13.2235 80.1907 12.9982 80.0089 12.8154C79.8631 12.669 79.6878 12.5668 79.5011 12.5098C79.389 12.4755 79.2728 12.4579 79.1563 12.4561C78.8457 12.4511 78.533 12.5612 78.2921 12.7881C78.2517 12.8259 78.216 12.8664 78.1827 12.9082L78.0899 12.8447C77.8685 12.7054 77.605 12.6241 77.3214 12.624C77.2266 12.624 77.1341 12.633 77.045 12.6504C77.0328 12.4057 77.117 12.1614 77.3018 11.9775C77.6354 11.646 78.1774 11.6251 78.5694 11.9092C78.5356 11.6554 78.4173 11.4112 78.2149 11.2188C77.7357 10.7625 76.9666 10.7711 76.4981 11.2373C76.0376 11.696 76.0387 12.4262 76.4942 12.8838C76.1367 13.134 75.9036 13.5425 75.9034 14.0039C75.9034 14.0133 75.9034 14.0238 75.9034 14.0332C75.7523 14.0078 75.6075 13.9468 75.4825 13.8467C75.114 13.552 75.0465 13.0284 75.3038 12.624C75.047 12.6784 74.8059 12.8145 74.6261 13.0273C74.2002 13.5309 74.2749 14.2761 74.7931 14.6904C75.1928 15.0103 75.7404 15.039 76.1651 14.8037C76.3016 14.9901 76.4846 15.1414 76.6973 15.2432C76.7123 15.2503 76.728 15.256 76.7432 15.2627C76.785 15.2809 76.8274 15.2973 76.8712 15.3115C76.8993 15.3207 76.9273 15.3304 76.9561 15.3379C76.9658 15.3404 76.9757 15.3424 76.9854 15.3447C77.0337 15.3562 77.0828 15.3646 77.1329 15.3711C77.1417 15.3722 77.1504 15.373 77.1593 15.374C77.1771 15.376 77.1949 15.3795 77.213 15.3809L77.3214 15.3848C77.3756 15.3848 77.4298 15.3815 77.4825 15.376L77.4425 15.4727C77.3969 15.5679 77.3336 15.6567 77.252 15.7334C77.2153 15.7679 77.1757 15.7979 77.1348 15.8252C76.8517 16.0145 76.4814 16.0291 76.1671 15.8779C76.13 15.8601 76.0929 15.8418 76.0577 15.8193H76.0567C76.0315 15.8032 76.0065 15.786 75.9825 15.7676C75.9908 15.8462 76.0088 15.9239 76.0333 16H67.9854L67.545 15.1104C67.2992 15.122 66.9875 15.0376 66.6993 14.8633C66.6554 14.8365 66.6142 14.8079 66.5743 14.7793C66.6162 14.648 66.6407 14.5101 66.6407 14.3672C66.6407 14.2482 66.6232 14.1327 66.5938 14.0215C66.6119 14.0133 66.6299 14.0049 66.6485 13.9971C66.9657 13.8656 67.2898 13.8256 67.5304 13.8711L68.3194 12.7969L68.3497 12.7852L68.3292 12.7832L68.3409 12.7686L68.3097 12.7812L66.8516 12.6406C66.742 12.8319 66.5028 13.0258 66.1856 13.1572L66.0372 13.2109C65.8414 13.061 65.6079 12.9476 65.3497 12.8838H65.3702C65.3649 12.8353 65.3614 12.7859 65.3614 12.7354C65.3615 12.4309 65.4597 12.1604 65.6104 11.9922L64.836 10.9111V10.8818L64.8243 10.8965L64.8145 10.8818V10.9111L64.0391 11.9912C64.1907 12.16 64.2882 12.4311 64.2882 12.7354L64.2804 12.8838H64.3722C64.1064 12.9495 63.8663 13.067 63.6671 13.2236L63.6729 13.2148L63.672 13.2158C63.6196 13.199 63.5671 13.1792 63.5147 13.1572C63.1975 13.0258 62.9584 12.8319 62.8487 12.6406L61.3897 12.7812L61.3595 12.7686L61.3702 12.7822L61.3497 12.7852L61.3809 12.7979L62.17 13.8711C62.4105 13.8256 62.7346 13.8656 63.0518 13.9971C63.077 14.0076 63.1009 14.02 63.1251 14.0312C63.0974 14.1394 63.0821 14.2517 63.0821 14.3672C63.0821 14.5087 63.1054 14.6452 63.1466 14.7754C63.1051 14.8053 63.0625 14.8353 63.0167 14.8633C62.7284 15.0377 62.4159 15.1221 62.17 15.1104L61.7296 16H31.9991C31.899 15.9617 31.7975 15.9139 31.6993 15.8545C31.6553 15.8276 31.6142 15.7982 31.5743 15.7695C31.6161 15.6385 31.6407 15.501 31.6407 15.3584C31.6407 15.2395 31.6231 15.1238 31.5938 15.0127C31.6119 15.0045 31.6298 14.9951 31.6485 14.9873C31.9657 14.8559 32.2898 14.8168 32.5304 14.8623L33.3194 13.7881L33.3497 13.7764L33.3292 13.7744L33.3409 13.7598L33.3097 13.7725L31.8516 13.6318C31.742 13.8231 31.5028 14.017 31.1856 14.1484L31.0372 14.2021C30.8416 14.0523 30.6085 13.9389 30.3507 13.875H30.3702C30.3649 13.8264 30.3614 13.7772 30.3614 13.7266C30.3614 13.4221 30.4597 13.1517 30.6104 12.9834L29.836 11.9014V11.8721L29.8243 11.8867L29.8145 11.8721V11.9014L29.0391 12.9824C29.1906 13.1511 29.2881 13.4215 29.2882 13.7256V13.7266C29.2882 13.7772 29.2857 13.8269 29.2804 13.875H29.3712C29.1058 13.9408 28.8661 14.0584 28.6671 14.2148L28.6729 14.2061H28.672C28.6197 14.1892 28.567 14.1703 28.5147 14.1484C28.1975 14.017 27.9584 13.8231 27.8487 13.6318L26.3897 13.7725L26.3595 13.7598L26.3702 13.7734L26.3497 13.7764L26.3809 13.7891L27.17 14.8623C27.4105 14.8168 27.7346 14.8559 28.0518 14.9873C28.077 14.9978 28.1009 15.0102 28.1251 15.0215C28.0973 15.1299 28.0821 15.2427 28.0821 15.3584C28.0822 15.4995 28.1047 15.6358 28.1456 15.7656C28.1042 15.7955 28.0624 15.8266 28.0167 15.8545C27.9183 15.914 27.8162 15.9616 27.7159 16H4.00692C0.443324 16 -1.34104 11.6917 1.17879 9.17188L9.17879 1.17188C9.92893 0.421736 10.9461 7.37408e-06 12.0069 0H28.4298L29.0528 0.989258ZM63.7403 15.5645C63.9096 15.6837 64.1041 15.7768 64.3165 15.8359C64.3204 15.8775 64.3233 15.9197 64.3233 15.9629C64.3233 15.9753 64.3217 15.9877 64.3214 16H63.1983C63.3 15.8673 63.4465 15.7364 63.629 15.626C63.6655 15.6037 63.7032 15.5836 63.7403 15.5645ZM66.086 15.626H66.087C66.2695 15.7365 66.416 15.8673 66.5177 16H65.3975C65.3972 15.988 65.3966 15.976 65.3966 15.9639V15.9629C65.3966 15.9197 65.3985 15.8773 65.4024 15.8359C65.6144 15.7772 65.8085 15.685 65.9776 15.5664C66.0138 15.5851 66.0504 15.6043 66.086 15.626ZM13.3282 8.91406L13.3194 8.89941V8.92871L12.6554 10.0098C12.7852 10.1785 12.8682 10.4497 12.8682 10.7539L12.8614 10.9023H12.9395C12.7118 10.9682 12.5067 11.0865 12.336 11.2432L12.3409 11.2334L12.2052 11.1758C11.9333 11.0444 11.7288 10.8504 11.6348 10.6592L10.3839 10.7988L10.3585 10.7871L10.3673 10.8008L10.3497 10.8037L10.377 10.8164L11.0528 11.8896C11.259 11.8441 11.5368 11.8832 11.8087 12.0146C11.8302 12.0252 11.8505 12.0376 11.8712 12.0488C11.8474 12.1572 11.8341 12.2701 11.8341 12.3857C11.8341 12.5268 11.8537 12.6632 11.8888 12.793C11.8533 12.8228 11.8176 12.8539 11.7784 12.8818C11.5313 13.0562 11.2635 13.1407 11.0528 13.1289L10.5567 14.2979L10.5323 14.3154L10.5499 14.3145L10.5431 14.3311L10.5675 14.3135L11.8233 14.2471C11.8861 14.0431 12.0568 13.8188 12.3038 13.6445C12.335 13.6223 12.3669 13.6021 12.3985 13.583C12.5435 13.7023 12.7106 13.7943 12.8927 13.8535C12.896 13.8952 12.8985 13.9372 12.8985 13.9805C12.8985 14.2853 12.814 14.5564 12.6847 14.7246L13.3497 15.8057V15.8359L13.3585 15.8203L13.3673 15.835V15.8066L14.0323 14.7256C13.9025 14.5569 13.8185 14.2866 13.8184 13.9824V13.9814C13.8184 13.9383 13.82 13.8959 13.8233 13.8545C14.0051 13.7958 14.1715 13.7036 14.3165 13.585C14.3474 13.6037 14.3788 13.6229 14.4093 13.6445L14.4102 13.6436C14.6574 13.8179 14.828 14.043 14.8907 14.2471L16.1436 14.3115L16.17 14.3311L16.1622 14.3125L16.1817 14.3145L16.1544 14.2949L15.6602 13.1289C15.4495 13.1407 15.1818 13.0562 14.9347 12.8818C14.897 12.855 14.8624 12.8255 14.8282 12.7969C14.864 12.6659 14.8848 12.5283 14.8848 12.3857C14.8848 12.2669 14.8699 12.1511 14.8448 12.04C14.8603 12.0318 14.8757 12.0225 14.8917 12.0146C15.1635 11.8833 15.4414 11.8441 15.6475 11.8896L16.3233 10.8164L16.3497 10.8037L16.3321 10.8018L16.3419 10.7871L16.3155 10.7998L15.0655 10.6592C14.9715 10.8504 14.767 11.0444 14.4952 11.1758L14.3673 11.2295C14.1997 11.0797 14.0003 10.9663 13.7794 10.9023H13.796C13.7914 10.8538 13.7882 10.8045 13.7882 10.7539C13.7882 10.4493 13.8728 10.179 14.002 10.0107L13.338 8.92871V8.89941L13.3282 8.91406ZM29.8399 14.7852C30.16 14.7852 30.42 15.0109 30.42 15.2891C30.4199 15.5671 30.1605 15.7919 29.8399 15.792C29.5198 15.792 29.2599 15.5667 29.2598 15.2891C29.2598 15.0114 29.5198 14.7852 29.8399 14.7852ZM52.8243 6.93457L52.8145 6.91797V6.95215L52.0391 8.18652C52.1906 8.37933 52.2881 8.68853 52.2882 9.03613V9.03711C52.2882 9.09496 52.2857 9.1521 52.2804 9.20703H52.3712C52.1056 9.2823 51.8661 9.41675 51.6671 9.5957L51.6729 9.58496H51.672C51.6198 9.56577 51.5669 9.54451 51.5147 9.51953C51.1975 9.36932 50.9584 9.1473 50.8487 8.92871L49.3907 9.08887L49.3595 9.07422L49.3702 9.09082L49.3497 9.09375L49.3809 9.1084L50.17 10.335C50.4105 10.2829 50.7346 10.3283 51.0518 10.4785C51.0771 10.4906 51.1009 10.5047 51.1251 10.5176C51.0974 10.6412 51.0821 10.7695 51.0821 10.9014C51.0821 11.0627 51.1047 11.2187 51.1456 11.3672C51.1042 11.4014 51.0625 11.4368 51.0167 11.4688C50.7284 11.6681 50.4159 11.7644 50.17 11.751L49.5909 13.0869L49.5626 13.1074L49.5831 13.1055L49.5753 13.125L49.6036 13.1045L51.0684 13.0293C51.1416 12.7963 51.341 12.54 51.629 12.3408C51.6654 12.3154 51.7033 12.2924 51.7403 12.2705C51.9095 12.4068 52.1042 12.5125 52.3165 12.5801C52.3204 12.6275 52.3233 12.6754 52.3233 12.7246C52.3233 13.0729 52.2252 13.3829 52.0743 13.5752L52.8487 14.8086V14.8447L52.8595 14.8262L52.8702 14.8438V14.8096L53.6456 13.5762C53.4941 13.3834 53.3966 13.0742 53.3966 12.7266V12.7256C53.3966 12.6761 53.3985 12.6275 53.4024 12.5801C53.6146 12.5129 53.8093 12.4082 53.9786 12.2725C54.0145 12.2937 54.0507 12.3162 54.086 12.3408L54.087 12.3398C54.3752 12.5391 54.5745 12.7961 54.6475 13.0293L56.1095 13.1035L56.1397 13.125L56.1309 13.1045L56.1534 13.1064L56.1222 13.085L55.545 11.751C55.2992 11.7643 54.9874 11.6679 54.6993 11.4688C54.6553 11.438 54.6142 11.4049 54.5743 11.3721C54.6161 11.2221 54.6407 11.0645 54.6407 10.9014C54.6407 10.7656 54.6231 10.6338 54.5938 10.5068C54.6119 10.4975 54.6299 10.4875 54.6485 10.4785C54.9657 10.3283 55.2898 10.2829 55.5304 10.335L56.3184 9.10742L56.3497 9.09375L56.3292 9.09082L56.3409 9.07422L56.3087 9.08887L54.8516 8.92871C54.742 9.1473 54.5028 9.36932 54.1856 9.51953L54.0372 9.58008C53.8416 9.40889 53.6084 9.28008 53.3507 9.20703H53.3702C53.3649 9.15151 53.3614 9.09496 53.3614 9.03711C53.3614 8.68899 53.4597 8.37981 53.6104 8.1875L52.836 6.95215V6.91797L52.8243 6.93457ZM64.8399 13.7939C65.1599 13.794 65.4199 14.0198 65.42 14.2979C65.42 14.576 65.1606 14.8007 64.8399 14.8008C64.5198 14.8008 64.2598 14.5755 64.2598 14.2979C64.26 14.0202 64.5199 13.7939 64.8399 13.7939ZM77.3038 13.4912C77.5595 13.4912 77.7677 13.6931 77.7677 13.9424C77.7675 14.1915 77.5599 14.3926 77.3038 14.3926C77.0478 14.3924 76.8411 14.1909 76.8409 13.9424C76.8409 13.6937 77.0482 13.4914 77.3038 13.4912ZM100.344 13.5371C100.527 13.5371 100.676 13.6654 100.676 13.8242C100.676 13.9832 100.527 14.1123 100.344 14.1123C100.161 14.1121 100.013 13.9828 100.013 13.8242C100.013 13.6658 100.161 13.5373 100.344 13.5371ZM92.1563 11.2793H92.1739L92.4747 12.1035C92.412 12.168 92.366 12.2491 92.339 12.3398L91.4864 12.2627C91.4838 12.2535 91.4816 12.2439 91.4786 12.2344L90.3497 13.834L92.3038 13.7021C92.3011 13.6975 92.2975 13.6927 92.294 13.6885L92.6641 13.043C92.7196 13.0641 92.7786 13.0781 92.8409 13.0781C92.918 13.0781 92.9907 13.0591 93.0567 13.0273L93.4425 13.6816C93.4379 13.6882 93.4324 13.6943 93.4278 13.7012L95.3497 13.8535L94.2218 12.2334C94.2187 12.2431 94.2153 12.253 94.213 12.2627L93.3429 12.3418C93.3178 12.2568 93.2764 12.1806 93.2198 12.1182L93.5265 11.2803H93.544L93.5431 11.2793H93.544L92.9561 10.1885L92.8595 10.0088V10.0098L92.795 9.89062L92.1563 11.2793ZM5.21493 7.25586C4.73574 6.79965 3.96657 6.80729 3.49813 7.27344C3.03747 7.73206 3.03887 8.46219 3.49422 8.91992C3.13651 9.1702 2.90344 9.57935 2.9034 10.041V10.0703C2.75234 10.0449 2.60748 9.98386 2.4825 9.88379C2.11401 9.58912 2.04651 9.06549 2.30379 8.66113C2.04702 8.71548 1.80595 8.85155 1.62606 9.06445C1.20032 9.56803 1.27496 10.3123 1.79305 10.7266C2.19281 11.0466 2.74027 11.0761 3.16512 10.8408C3.30211 11.028 3.4865 11.1786 3.70028 11.2803C3.71185 11.2858 3.72369 11.2907 3.73543 11.2959C3.78395 11.3174 3.83359 11.3364 3.88485 11.3525C3.90142 11.3578 3.91782 11.3635 3.93465 11.3682C3.95538 11.3739 3.97605 11.38 3.99715 11.3848C4.03686 11.3938 4.07731 11.4005 4.11825 11.4062C4.13831 11.409 4.15847 11.4111 4.17879 11.4131C4.21265 11.4164 4.2468 11.418 4.28133 11.4189C4.29456 11.4193 4.30805 11.4219 4.32137 11.4219C4.37561 11.4219 4.4298 11.4186 4.4825 11.4131C4.4379 11.5449 4.36044 11.6675 4.25204 11.7695C4.21448 11.8048 4.17379 11.8355 4.13192 11.8633C4.12739 11.8663 4.12282 11.8692 4.11825 11.8721C4.03154 11.9273 3.93734 11.9665 3.83895 11.9902C3.61905 12.0432 3.38178 12.0169 3.16903 11.915C3.13126 11.897 3.09355 11.8783 3.0577 11.8555H3.05672C3.03163 11.8394 3.00645 11.8221 2.9825 11.8037C2.99746 11.9464 3.04092 12.0868 3.10946 12.2178C3.11383 12.2262 3.11756 12.2349 3.12215 12.2432C3.14505 12.2844 3.17098 12.3243 3.1993 12.3633C3.20461 12.3706 3.2104 12.3775 3.2159 12.3848C3.24727 12.4259 3.28087 12.4661 3.31844 12.5039C3.78483 12.9726 4.55251 12.985 5.03426 12.5312C5.35015 12.2339 5.46347 11.8107 5.37313 11.4219C5.34655 11.3072 5.30347 11.1953 5.24129 11.0908C5.29837 11.0434 5.34977 10.9901 5.39852 10.9346C5.61001 10.6936 5.73934 10.3829 5.73934 10.041C5.73934 9.99013 5.73512 9.94009 5.72957 9.89062C5.70755 9.69328 5.64435 9.50826 5.54598 9.34473L5.63973 9.34766C5.8573 9.36449 6.06558 9.45328 6.22567 9.61426C6.34347 9.73275 6.41975 9.8755 6.45614 10.0273C6.52197 10.3028 6.45599 10.607 6.26082 10.8477V10.8486C6.52217 10.8227 6.7771 10.7139 6.98055 10.5225C7.22522 10.292 7.34925 9.98565 7.35067 9.67871C7.35219 9.38109 7.23854 9.08236 7.00887 8.85156C6.54247 8.38298 5.7738 8.37053 5.29207 8.82422C5.25166 8.86205 5.21596 8.90253 5.1827 8.94434L5.08993 8.88184L5.08895 8.88086C5.08537 8.87863 5.08181 8.87623 5.07821 8.87402H5.07723C4.85843 8.73947 4.5997 8.66118 4.32137 8.66113C4.2266 8.66113 4.13414 8.67007 4.045 8.6875C4.03271 8.44283 4.11704 8.1986 4.30184 8.01465C4.63549 7.68308 5.17735 7.66209 5.56942 7.94629C5.5356 7.69259 5.41724 7.44829 5.21493 7.25586ZM13.3409 11.8125C13.6153 11.8125 13.8389 12.0382 13.8389 12.3164C13.8389 12.5945 13.6158 12.8193 13.3409 12.8193C13.0667 12.8192 12.8439 12.5939 12.8438 12.3164C12.8438 12.0388 13.0666 11.8127 13.3409 11.8125ZM52.8399 10.2471C53.1599 10.2472 53.4198 10.5045 53.42 10.8223C53.42 11.1402 53.1606 11.3974 52.8399 11.3975C52.5198 11.3975 52.2598 11.1396 52.2598 10.8223C52.26 10.5051 52.5199 10.2471 52.8399 10.2471ZM70.8243 3.95996L70.8145 3.94531V3.97461L70.0391 5.05566C70.1906 5.2244 70.2881 5.49471 70.2882 5.79883V5.7998C70.2882 5.85034 70.2857 5.90025 70.2804 5.94824H70.3712C70.1052 6.01418 69.8653 6.13214 69.6661 6.28906L69.6729 6.27832L69.672 6.2793C69.6197 6.26249 69.567 6.24355 69.5147 6.22168C69.1976 6.09027 68.9584 5.89632 68.8487 5.70508L67.3917 5.84473L67.3595 5.83203L67.3702 5.84668L67.3497 5.84961L67.3819 5.8623L68.17 6.93457C68.4106 6.88906 68.7346 6.92912 69.0518 7.06055C69.077 7.07109 69.1009 7.08347 69.1251 7.09473C69.0974 7.20295 69.0821 7.31519 69.0821 7.43066C69.0821 7.572 69.1046 7.70883 69.1456 7.83887C69.1044 7.8686 69.0623 7.89892 69.0167 7.92676C68.7284 8.10115 68.4159 8.18657 68.17 8.1748L67.5909 9.34375L67.5626 9.36133L67.5821 9.36035L67.5753 9.37598L67.6016 9.35938L69.0684 9.29297C69.1415 9.08903 69.3409 8.86478 69.629 8.69043C69.6654 8.66819 69.7033 8.64803 69.7403 8.62891C69.9095 8.74813 70.1041 8.84125 70.3165 8.90039L70.3233 9.02637C70.3233 9.33116 70.2252 9.60226 70.0743 9.77051L70.8487 10.8496V10.8818L70.8595 10.8652L70.8702 10.8799V10.8516L71.6456 9.77148C71.4941 9.60272 71.3966 9.33163 71.3966 9.02734L71.4024 8.90039C71.6146 8.84163 71.8093 8.74961 71.9786 8.63086C72.0145 8.64946 72.0507 8.66889 72.086 8.69043L72.087 8.68945C72.375 8.86373 72.5744 9.08808 72.6475 9.29199L74.1104 9.3584L74.1397 9.37598L74.1309 9.3584L74.1534 9.36035L74.1222 9.3418L73.545 8.1748C73.2992 8.18648 72.9875 8.10107 72.6993 7.92676C72.6553 7.89992 72.6142 7.87141 72.5743 7.84277C72.6162 7.71149 72.6407 7.57351 72.6407 7.43066C72.6407 7.31167 72.6232 7.19622 72.5938 7.08496C72.6119 7.07679 72.6299 7.06834 72.6485 7.06055C72.9657 6.92912 73.2898 6.88906 73.5304 6.93457L74.3184 5.8623L74.3497 5.84961L74.3292 5.84668L74.3409 5.83203L74.3077 5.84473L72.8516 5.70508C72.742 5.89634 72.5028 6.09025 72.1856 6.22168L72.0362 6.27441C71.8408 6.12495 71.6081 6.01206 71.3507 5.94824H71.3702C71.3649 5.89974 71.3614 5.85034 71.3614 5.7998C71.3614 5.49505 71.4595 5.22392 71.6104 5.05566L70.836 3.97461V3.94531L70.8243 3.95996ZM4.30379 9.52832C4.4556 9.52832 4.58939 9.60013 4.67391 9.70996C4.72667 9.77812 4.75891 9.86061 4.76473 9.95117C4.7653 9.96026 4.76765 9.96929 4.76766 9.97852C4.76766 10.2278 4.56005 10.4287 4.30379 10.4287C4.04772 10.4285 3.8409 10.2272 3.8409 9.97852C3.84105 9.72997 4.04832 9.52853 4.30379 9.52832ZM39.1563 7.31641H39.1739L39.4747 8.13965C39.4117 8.20434 39.365 8.28574 39.338 8.37695L38.4864 8.2998C38.4837 8.2905 38.4817 8.2802 38.4786 8.27051L37.3497 9.87109L39.3038 9.73926C39.3011 9.73461 39.2975 9.72985 39.294 9.72559L39.6651 9.08008C39.7203 9.10097 39.779 9.11426 39.8409 9.11426C39.9179 9.11425 39.9907 9.0961 40.0567 9.06445L40.4415 9.71777C40.4369 9.72433 40.4324 9.73134 40.4278 9.73828L42.3487 9.88867L42.3497 9.88965L41.2218 8.27051C41.2188 8.27999 41.2152 8.28934 41.213 8.29883L40.3429 8.37793C40.3178 8.293 40.2764 8.21668 40.2198 8.1543L40.5265 7.31641H40.544L40.5431 7.31543H40.544L40.254 6.77734L39.8595 6.04492V6.0459L39.795 5.92676L39.1563 7.31641ZM23.8595 3.29199C23.3004 2.83578 22.403 2.84436 21.8565 3.31055C21.3192 3.76927 21.3201 4.49938 21.8516 4.95703C21.4346 5.20728 21.1623 5.6157 21.1622 6.07715V6.10645C20.9859 6.081 20.8168 6.02008 20.671 5.91992C20.2411 5.62527 20.1619 5.10162 20.462 4.69727C20.1625 4.75164 19.8818 4.88774 19.672 5.10059C19.1754 5.60404 19.2622 6.34834 19.8663 6.7627C20.3327 7.08279 20.9722 7.11229 21.4679 6.87695C21.6265 7.06267 21.839 7.21276 22.086 7.31445C22.1053 7.32241 22.1249 7.32958 22.1446 7.33691C22.1927 7.35478 22.2417 7.37072 22.2921 7.38477C22.3208 7.39279 22.3496 7.40051 22.379 7.40723C22.3984 7.41166 22.4179 7.41607 22.4376 7.41992C22.4898 7.43015 22.5428 7.43835 22.5968 7.44434C22.6071 7.44549 22.6176 7.44628 22.628 7.44727C22.6488 7.44923 22.6695 7.45278 22.6905 7.4541L22.8165 7.45801C22.8798 7.458 22.9425 7.45469 23.004 7.44922C22.9519 7.58116 22.862 7.70455 22.7354 7.80664C22.5956 7.91926 22.427 7.99227 22.2481 8.02832C22.0567 8.06689 21.8541 8.06037 21.6602 8.0127C21.5498 7.98559 21.4419 7.94725 21.3419 7.89258H21.3409C21.3116 7.87653 21.2829 7.85922 21.255 7.84082C21.2861 8.09501 21.417 8.34315 21.6466 8.54102C22.1906 9.00923 23.0866 9.02174 23.6485 8.56836C24.0597 8.23669 24.1772 7.7476 23.9981 7.3252C23.9694 7.25725 23.9339 7.19053 23.8897 7.12695C24.2453 6.87367 24.4718 6.49783 24.4718 6.07715C24.4717 6.02565 24.4677 5.97485 24.461 5.9248C24.4351 5.72841 24.3594 5.54468 24.2452 5.38184C24.5376 5.37785 24.8257 5.46641 25.0391 5.65039C25.1519 5.74769 25.2317 5.86176 25.2804 5.9834C25.3983 6.27866 25.3292 6.61946 25.0792 6.88379V6.88477C25.3841 6.85884 25.6816 6.75005 25.919 6.55859C26.2248 6.31172 26.3678 5.97796 26.3477 5.64941C26.3311 5.37411 26.2002 5.1024 25.9522 4.88867C25.8502 4.80083 25.7356 4.72858 25.6134 4.67285C25.1678 4.46966 24.618 4.48108 24.1827 4.70898C24.1004 4.75206 24.0219 4.80272 23.9493 4.86133C23.9022 4.89917 23.8602 4.93963 23.8214 4.98145C23.5428 4.80347 23.1949 4.6973 22.8165 4.69727C22.7059 4.69727 22.5982 4.70621 22.4942 4.72363C22.4799 4.47892 22.5783 4.23471 22.794 4.05078C23.1832 3.71927 23.8151 3.69837 24.2725 3.98242C24.2331 3.72874 24.0955 3.48441 23.8595 3.29199ZM87.3282 1.97852L87.3194 1.96387V1.99316L86.6554 3.07324C86.7852 3.242 86.8682 3.5131 86.8682 3.81738L86.8614 3.96582H86.9434C86.7139 4.03161 86.5068 4.14967 86.335 4.30762L86.3399 4.29688C86.2952 4.28008 86.2499 4.26111 86.2052 4.23926C85.9336 4.10793 85.7289 3.91471 85.6348 3.72363L84.3839 3.8623L84.3585 3.85059L84.3673 3.86426L84.3497 3.86719L84.377 3.87988L85.0528 4.95312C85.259 4.90761 85.5368 4.94767 85.8087 5.0791C85.8302 5.08964 85.8505 5.10204 85.8712 5.11328C85.8475 5.22145 85.8341 5.33381 85.8341 5.44922C85.8341 5.59067 85.8545 5.72729 85.8897 5.85742C85.8542 5.88733 85.8177 5.91732 85.7784 5.94531C85.5313 6.1197 85.2635 6.20414 85.0528 6.19238L84.5567 7.36133L84.5323 7.37891L84.5499 7.37793L84.5431 7.39453L84.5675 7.37695L85.8233 7.31152C85.886 7.10747 86.0567 6.8824 86.3038 6.70801C86.335 6.68581 86.3668 6.66557 86.3985 6.64648C86.5436 6.76583 86.7106 6.85776 86.8927 6.91699C86.8961 6.95889 86.8985 7.00141 86.8985 7.04492C86.8985 7.34959 86.814 7.61986 86.6847 7.78809L87.3497 8.86914V8.89941L87.3585 8.88379L87.3673 8.89844V8.87012L88.0323 7.78906C87.9025 7.62029 87.8184 7.3501 87.8184 7.0459V7.04492C87.8185 7.00176 87.82 6.95933 87.8233 6.91797C88.0052 6.85921 88.1724 6.76814 88.3175 6.64941C88.348 6.6679 88.3792 6.68662 88.4093 6.70801H88.4102C88.6572 6.88234 88.828 7.10659 88.8907 7.31055L90.1446 7.37695L90.17 7.39453L90.1622 7.37695L90.1817 7.37891L90.1554 7.36035L89.6602 6.19238C89.4495 6.20414 89.1818 6.1197 88.9347 5.94531C88.8969 5.91842 88.8615 5.89002 88.8272 5.86133C88.8632 5.72997 88.8848 5.59216 88.8848 5.44922C88.8848 5.33028 88.87 5.21473 88.8448 5.10352C88.8603 5.09533 88.8757 5.0869 88.8917 5.0791C89.1636 4.94767 89.4414 4.90761 89.6475 4.95312L90.3233 3.87988L90.3497 3.86719L90.3321 3.86523L90.3419 3.85059L90.3145 3.86328L89.0655 3.72363C88.9715 3.91469 88.7667 4.10791 88.4952 4.23926C88.453 4.2599 88.4095 4.27689 88.3673 4.29297C88.1988 4.14243 87.9978 4.02953 87.7755 3.96582H87.796C87.7914 3.91731 87.7882 3.86793 87.7882 3.81738C87.7882 3.51281 87.8728 3.2424 88.002 3.07422L87.338 1.99316V1.96387L87.3282 1.97852ZM70.8399 6.8584C71.16 6.85848 71.42 7.08415 71.42 7.3623C71.4197 7.64026 71.1604 7.86516 70.8399 7.86523C70.52 7.86523 70.2601 7.6398 70.2598 7.3623C70.2598 7.08461 70.5198 6.8584 70.8399 6.8584ZM22.797 5.56445C23.0155 5.56458 23.2032 5.67317 23.2882 5.8291C23.3183 5.88396 23.3348 5.94462 23.336 6.00879C23.3361 6.01091 23.337 6.01349 23.337 6.01562C23.3367 6.2646 23.0956 6.46565 22.797 6.46582C22.4982 6.46582 22.2572 6.26421 22.2569 6.01562C22.2569 5.76683 22.4986 5.56445 22.797 5.56445ZM13.1563 3.35254H13.1739L13.4747 4.17578C13.4118 4.24037 13.3661 4.32203 13.3389 4.41309L12.4864 4.33594C12.4838 4.32676 12.4816 4.31717 12.4786 4.30762L11.3497 5.90723L13.3038 5.77539C13.3011 5.77074 13.2975 5.76598 13.294 5.76172L13.6641 5.11621C13.7196 5.13734 13.7787 5.15039 13.8409 5.15039C13.9181 5.15038 13.9906 5.13141 14.0567 5.09961L14.4425 5.75488C14.4379 5.76145 14.4324 5.76746 14.4278 5.77441L16.3487 5.9248L16.3497 5.92578L15.2218 4.30664C15.2187 4.31631 15.2153 4.32627 15.213 4.33594L14.3429 4.41504C14.3178 4.32979 14.2766 4.25299 14.2198 4.19043L14.5264 3.35254H14.544L13.8595 2.08203V2.08301L13.795 1.96387L13.1563 3.35254ZM87.3409 4.87598C87.6152 4.87598 87.8388 5.10179 87.839 5.37988C87.839 5.65809 87.6158 5.88379 87.3409 5.88379C87.0667 5.88361 86.8438 5.65746 86.8438 5.37988C86.844 5.10241 87.0667 4.87616 87.3409 4.87598ZM78.797 3.02637C79.0153 3.02651 79.202 3.15342 79.2872 3.33496C79.3153 3.39432 79.3307 3.45939 79.3341 3.52832C79.3344 3.53638 79.337 3.54458 79.337 3.55273C79.3369 3.84337 79.0957 4.07793 78.797 4.07812C78.4981 4.07812 78.257 3.84291 78.2569 3.55273C78.2569 3.26247 78.4986 3.02637 78.797 3.02637ZM45.3038 1.04492C45.5595 1.04492 45.7677 1.28044 45.7677 1.57129C45.7675 1.86199 45.56 2.09668 45.3038 2.09668C45.0478 2.09644 44.8411 1.86126 44.8409 1.57129C44.8409 1.28117 45.0482 1.04516 45.3038 1.04492ZM31.3409 0.913086C31.6153 0.913086 31.8389 1.13879 31.8389 1.41699C31.8388 1.69505 31.6157 1.91992 31.3409 1.91992C31.0668 1.91974 30.844 1.69443 30.8438 1.41699C30.8438 1.13941 31.0666 0.913266 31.3409 0.913086ZM46.5138 0.0332031C46.4356 0.0864303 46.3604 0.149536 46.2921 0.224609C46.2517 0.268673 46.2159 0.315573 46.1827 0.364258C46.1528 0.338298 46.1216 0.314262 46.0899 0.291016L46.0782 0.282227H46.0772C45.8584 0.125176 45.5998 0.0332618 45.3214 0.0332031C45.2266 0.0332031 45.1341 0.0441121 45.045 0.0644531C45.0441 0.0429795 45.0448 0.0214374 45.045 0H46.5645C46.5473 0.0104547 46.5306 0.0217365 46.5138 0.0332031ZM30.8614 0.00292969H30.9395C30.7118 0.0688369 30.5067 0.187006 30.336 0.34375L30.3409 0.333984L30.2052 0.276367C30.0492 0.200968 29.9161 0.104203 29.8126 0H30.8614V0.00292969ZM32.8878 0C32.7843 0.104208 32.6512 0.200955 32.4952 0.276367L32.3673 0.330078C32.1997 0.18027 32.0003 0.0668743 31.7794 0.00292969H31.796V0H32.8878Z" fill="url(#paint0_radial_4566_13279)"/>
<defs>
<radialGradient id="paint0_radial_4566_13279" cx="0" cy="0" r="1" gradientUnits="userSpaceOnUse" gradientTransform="translate(78.8098 12.8549) rotate(180) scale(94.455 74.4606)">
<stop stop-color="#FEE179"/>
<stop offset="1" stop-color="#F3C73B"/>
</radialGradient>
</defs>
</svg>
