<svg width="32" height="32" viewBox="0 0 32 32" fill="none" xmlns="http://www.w3.org/2000/svg">
<g clip-path="url(#clip0_3230_13366)">
<path d="M450.461 -360H-86.1543V93.3333H450.461V-360Z" fill="#D8D8D8"/>
<path d="M32 0H0V32H32V0Z" fill="#DC4437"/>
<path d="M7.63102 3.8667L9.08333 7.20003L12.3079 7.73337L9.96949 10.3467L10.511 14L7.63102 12.2667L4.75102 14L5.29256 10.3467L2.9541 7.73337L6.17872 7.20003L7.63102 3.8667Z" fill="#FCBE1F"/>
<path d="M14.8921 2.1333L15.4582 3.43997L16.7382 3.6533L15.8028 4.6933L16.0244 6.1333L14.8921 5.43997L13.7597 6.1333L13.9813 4.6933L13.0459 3.6533L14.3259 3.43997L14.8921 2.1333Z" fill="#FCBE1F"/>
<path d="M15.8774 6.87988L16.4436 8.21322L17.7236 8.42655L16.7882 9.43988L17.0097 10.8799L15.8774 10.2132L14.7451 10.8799L14.9666 9.43988L14.0312 8.42655L15.3113 8.21322L15.8774 6.87988Z" fill="#FCBE1F"/>
<path d="M14.8921 11.7334L15.4582 13.0401L16.7382 13.2534L15.8028 14.2934L16.0244 15.7334L14.8921 15.0401L13.7597 15.7334L13.9813 14.2934L13.0459 13.2534L14.3259 13.0401L14.8921 11.7334Z" fill="#FCBE1F"/>
</g>
<defs>
<clipPath id="clip0_3230_13366">
<rect width="32" height="32" rx="16" fill="white"/>
</clipPath>
</defs>
</svg>
