<svg width="32" height="32" viewBox="0 0 32 32" fill="none" xmlns="http://www.w3.org/2000/svg">
<path d="M32 0H0V3.54667H32V0Z" fill="#DC4437"/>
<path d="M32 7.12012H0V10.6668H32V7.12012Z" fill="#DC4437"/>
<path d="M32 21.3333H0V24.8799H32V21.3333Z" fill="#DC4437"/>
<path d="M32 28.4534H0V32H32V28.4534Z" fill="#DC4437"/>
<path d="M32 14.2134H0V17.76H32V14.2134Z" fill="#DC4437"/>
<path d="M32 3.54663H0V7.0933H32V3.54663Z" fill="white"/>
<path d="M32 10.6667H0V14.2134H32V10.6667Z" fill="white"/>
<path d="M32 24.8799H0V28.4265H32V24.8799Z" fill="white"/>
<path d="M32 17.7866H0V21.3333H32V17.7866Z" fill="white"/>
<path d="M17.2308 0H0V17.7867H17.2308V0Z" fill="#2A66B7"/>
<path d="M3.32272 1.06665L3.88887 2.37332L5.16887 2.58665L4.23349 3.62665L4.45502 5.06665L3.32272 4.37332L2.19041 5.06665L2.41195 3.62665L1.47656 2.58665L2.75656 2.37332L3.32272 1.06665Z" fill="white"/>
<path d="M8.36959 1.06665L8.93575 2.37332L10.2157 2.58665L9.30498 3.62665L9.5019 5.06665L8.36959 4.37332L7.23728 5.06665L7.43421 3.62665L6.52344 2.58665L7.80344 2.37332L8.36959 1.06665Z" fill="white"/>
<path d="M13.4155 1.06665L13.9816 2.37332L15.2616 2.58665L14.3263 3.62665L14.5478 5.06665L13.4155 4.37332L12.2832 5.06665L12.5047 3.62665L11.5693 2.58665L12.8493 2.37332L13.4155 1.06665Z" fill="white"/>
<path d="M5.90768 6.3999L6.47383 7.70657L7.75383 7.9199L6.84306 8.9599L7.03999 10.3999L5.90768 9.70657L4.77537 10.3999L4.97229 8.9599L4.06152 7.9199L5.34152 7.70657L5.90768 6.3999Z" fill="white"/>
<path d="M10.9536 6.3999L11.5197 7.70657L12.7997 7.9199L11.8643 8.9599L12.0859 10.3999L10.9536 9.70657L9.82127 10.3999L10.0428 8.9599L9.10742 7.9199L10.3874 7.70657L10.9536 6.3999Z" fill="white"/>
<path d="M3.32272 12.0532L3.88887 13.3599L5.16887 13.5732L4.23349 14.5866L4.45502 16.0532L3.32272 15.3599L2.19041 16.0532L2.41195 14.5866L1.47656 13.5732L2.75656 13.3599L3.32272 12.0532Z" fill="white"/>
<path d="M8.36959 12.0532L8.93575 13.3599L10.2157 13.5732L9.30498 14.5866L9.5019 16.0532L8.36959 15.3599L7.23728 16.0532L7.43421 14.5866L6.52344 13.5732L7.80344 13.3599L8.36959 12.0532Z" fill="white"/>
<path d="M13.4155 12.0532L13.9816 13.3599L15.2616 13.5732L14.3263 14.5866L14.5478 16.0532L13.4155 15.3599L12.2832 16.0532L12.5047 14.5866L11.5693 13.5732L12.8493 13.3599L13.4155 12.0532Z" fill="white"/>
</svg>
