<svg width="32" height="32" viewBox="0 0 32 32" fill="none" xmlns="http://www.w3.org/2000/svg">
<path d="M16.0006 0C9.01389 0 3.09389 4.42667 0.907227 10.6667H31.0939C28.9072 4.42667 22.9872 0 16.0006 0Z" fill="#83BF4F"/>
<path d="M16.0006 31.9999C22.9872 31.9999 28.9072 27.5733 31.0939 21.3333H0.907227C3.09389 27.5733 9.01389 31.9999 16.0006 31.9999Z" fill="#ED4C5C"/>
<path d="M0.906667 10.6667C0.32 12.3201 0 14.1334 0 16.0001C0 17.8667 0.32 19.6801 0.906667 21.3334H31.0933C31.68 19.6801 32 17.8667 32 16.0001C32 14.1334 31.68 12.3201 31.0933 10.6667H0.906667Z" fill="#F9F9F9"/>
<path d="M30.6131 22.5601L30.4531 22.8801H30.6131V22.5601Z" fill="white"/>
<path d="M1.54672 22.8801L1.38672 22.5601V22.8801H1.54672Z" fill="white"/>
<path d="M1.92021 8.95996H1.65354C1.60021 9.01329 1.54688 9.06663 1.54688 9.11996H1.92021V8.95996Z" fill="white"/>
<path d="M1.9199 10.1334V9.9734H1.38656V9.6534H2.18656V10.1334H3.3599V8.90674H3.1999V9.92007H2.8799V8.90674H2.7199V9.92007H2.3999V8.90674H2.2399V9.44007H1.38656C1.33323 9.54674 1.2799 9.70674 1.22656 9.8134V10.1334H1.9199Z" fill="white"/>
<path d="M1.92021 22.8799H1.54688C1.54688 22.9332 1.60021 22.9865 1.65354 23.0399H1.97354L1.92021 22.8799Z" fill="white"/>
<path d="M1.38634 22.5599H2.18634V23.0399H3.35967V21.8132H3.19967V22.8266H2.87967V21.8132H2.71967V22.8266H2.39967V21.8132H2.23967V22.3466H1.33301C1.33301 22.4532 1.38634 22.5066 1.38634 22.5599Z" fill="white"/>
<path d="M1.92012 21.8667H1.12012C1.12012 21.92 1.17345 21.9734 1.17345 22.0267H1.92012V21.8667Z" fill="white"/>
<path d="M6.18652 10.1334H6.93319V9.9734H6.39986V9.6534H7.19986V10.1334H8.37319V8.90674H8.21319V9.9734H7.89319V8.90674H7.67986V9.9734H7.35986V8.90674H7.19986V9.44007H6.18652V10.1334Z" fill="white"/>
<path d="M5.86673 10.1333V9.43994H5.1734V9.65327H5.70673V9.97327H4.90673V9.43994H3.7334V10.1866H3.8934V9.65327H4.6934V10.1333H5.86673Z" fill="white"/>
<path d="M4.16016 9.97339H4.42682V10.1334H4.16016V9.97339Z" fill="white"/>
<path d="M3.67969 8.95996H6.93302V9.11996H3.67969V8.95996Z" fill="white"/>
<path d="M5.1734 22.56H5.70673V22.88H4.90673V22.3467H3.7334V23.0933H3.8934V22.56H4.6934V23.04H5.86673V22.3467H5.1734V22.56Z" fill="white"/>
<path d="M4.16016 22.8799H4.42682V23.0399H4.16016V22.8799Z" fill="white"/>
<path d="M3.67969 21.8667H6.93302V22.0267H3.67969V21.8667Z" fill="white"/>
<path d="M8.21319 22.8799H7.89319V21.8132H7.67986V22.8799H7.35986V21.8132H7.19986V22.3466H6.18652V23.0399H6.93319V22.8799H6.39986V22.5599H7.19986V23.0399H8.37319V21.8132H8.21319V22.8799Z" fill="white"/>
<path d="M11.2002 10.1334H11.8935V9.9734H11.3602V9.6534H12.1602V10.1334H13.3335V8.90674H13.1735V9.9734H12.8535V8.90674H12.6935V9.9734H12.3735V8.90674H12.1602V9.44007H11.2002V10.1334Z" fill="white"/>
<path d="M10.88 10.1333V9.43994H10.1334V9.65327H10.6667V9.97327H9.86669V9.43994H8.69336V10.1866H8.85336V9.65327H9.70669V10.1333H10.88Z" fill="white"/>
<path d="M8.63965 8.95996H11.893V9.11996H8.63965V8.95996Z" fill="white"/>
<path d="M9.17285 9.97339H9.43952V10.1334H9.17285V9.97339Z" fill="white"/>
<path d="M13.1735 22.8799H12.8535V21.8132H12.6935V22.8799H12.3735V21.8132H12.1602V22.3466H11.2002V23.0399H11.8935V22.8799H11.3602V22.5599H12.1602V23.0399H13.3335V21.8132H13.1735V22.8799Z" fill="white"/>
<path d="M9.17285 22.8799H9.43952V23.0399H9.17285V22.8799Z" fill="white"/>
<path d="M8.63965 21.8667H11.893V22.0267H8.63965V21.8667Z" fill="white"/>
<path d="M10.1334 22.56H10.6667V22.88H9.86669V22.3467H8.69336V23.0933H8.85336V22.56H9.70669V23.04H10.88V22.3467H10.1334V22.56Z" fill="white"/>
<path d="M15.84 10.1333V9.43994H15.1467V9.65327H15.68V9.97327H14.8267V9.43994H13.6533V10.1866H13.8667V9.65327H14.6667V10.1333H15.84Z" fill="white"/>
<path d="M13.6533 8.95996H16.9067V9.11996H13.6533V8.95996Z" fill="white"/>
<path d="M14.1328 9.97339H14.3995V10.1334H14.1328V9.97339Z" fill="white"/>
<path d="M16.1602 10.1334H16.8535V9.9734H16.3202V9.6534H17.1735V10.1334H18.3468V8.90674H18.1335V9.9734H17.8135V8.90674H17.6535V9.9734H17.3335V8.90674H17.1735V9.44007H16.1602V10.1334Z" fill="white"/>
<path d="M13.6533 21.8667H16.9067V22.0267H13.6533V21.8667Z" fill="white"/>
<path d="M15.1467 22.56H15.68V22.88H14.8267V22.3467H13.6533V23.0933H13.8667V22.56H14.6667V23.04H15.84V22.3467H15.1467V22.56Z" fill="white"/>
<path d="M14.1328 22.8799H14.3995V23.0399H14.1328V22.8799Z" fill="white"/>
<path d="M18.1335 22.8799H17.8135V21.8132H17.6535V22.8799H17.3335V21.8132H17.1735V22.3466H16.1602V23.0399H16.8535V22.8799H16.3202V22.5599H17.1735V23.0399H18.3468V21.8132H18.1335V22.8799Z" fill="white"/>
<path d="M19.0928 9.97339H19.3594V10.1334H19.0928V9.97339Z" fill="white"/>
<path d="M18.6133 8.95996H21.8666V9.11996H18.6133V8.95996Z" fill="white"/>
<path d="M21.1201 10.1334H21.8668V9.9734H21.3335V9.6534H22.1335V10.1334H23.3068V8.90674H23.1468V9.9734H22.8268V8.90674H22.6135V9.9734H22.2935V8.90674H22.1335V9.44007H21.1201V10.1334Z" fill="white"/>
<path d="M20.8003 10.1333V9.43994H20.107V9.65327H20.6403V9.97327H19.8403V9.43994H18.667V10.1866H18.827V9.65327H19.627V10.1333H20.8003Z" fill="white"/>
<path d="M18.6133 21.8667H21.8666V22.0267H18.6133V21.8667Z" fill="white"/>
<path d="M23.1468 22.8799H22.8268V21.8132H22.6135V22.8799H22.2935V21.8132H22.1335V22.3466H21.1201V23.0399H21.8668V22.8799H21.3335V22.5599H22.1335V23.0399H23.3068V21.8132H23.1468V22.8799Z" fill="white"/>
<path d="M20.107 22.56H20.6403V22.88H19.8403V22.3467H18.667V23.0933H18.827V22.56H19.627V23.04H20.8003V22.3467H20.107V22.56Z" fill="white"/>
<path d="M19.0928 22.8799H19.3594V23.0399H19.0928V22.8799Z" fill="white"/>
<path d="M25.8136 10.1333V9.43994H25.067V9.65327H25.6003V9.97327H24.8003V9.43994H23.627V10.1866H23.787V9.65327H24.6403V10.1333H25.8136Z" fill="white"/>
<path d="M24.1064 9.97339H24.3731V10.1334H24.1064V9.97339Z" fill="white"/>
<path d="M23.5732 8.95996H26.8266V9.11996H23.5732V8.95996Z" fill="white"/>
<path d="M26.1328 10.1334H26.8261V9.9734H26.2928V9.6534H27.0928V10.1334H28.2661V8.90674H28.1061V9.9734H27.7861V8.90674H27.6261V9.9734H27.3061V8.90674H27.0928V9.44007H26.1328V10.1334Z" fill="white"/>
<path d="M24.1064 22.8799H24.3731V23.0399H24.1064V22.8799Z" fill="white"/>
<path d="M25.067 22.56H25.6003V22.88H24.8003V22.3467H23.627V23.0933H23.787V22.56H24.6403V23.04H25.8136V22.3467H25.067V22.56Z" fill="white"/>
<path d="M23.5732 21.8667H26.8266V22.0267H23.5732V21.8667Z" fill="white"/>
<path d="M28.1061 22.8799H27.7861V21.8132H27.6261V22.8799H27.3061V21.8132H27.0928V22.3466H26.1328V23.0399H26.8261V22.8799H26.2928V22.5599H27.0928V23.0399H28.2661V21.8132H28.1061V22.8799Z" fill="white"/>
<path d="M28.5865 9.11996H30.4532C30.3999 9.06663 30.3999 9.01329 30.3465 8.95996H28.5332C28.5865 8.95996 28.5865 9.11996 28.5865 9.11996Z" fill="white"/>
<path d="M30.0796 9.65316H30.613V9.97316H29.813V9.49316H28.6396V10.1865H28.7996V9.65316H29.5996V10.1332H30.773V9.8665C30.7196 9.75983 30.6663 9.59983 30.613 9.49316H30.0796V9.65316Z" fill="white"/>
<path d="M29.0664 9.97339H29.3331V10.1334H29.0664V9.97339Z" fill="white"/>
<path d="M29.0664 22.8799H29.3331V23.0399H29.0664V22.8799Z" fill="white"/>
<path d="M28.5869 21.8667V22.0267H30.8269C30.8269 21.9734 30.8802 21.92 30.8802 21.8667H28.5869Z" fill="white"/>
<path d="M30.0801 22.56H30.6134C30.6667 22.5067 30.6667 22.4533 30.7201 22.3467H30.0801V22.56Z" fill="white"/>
<path d="M29.7602 22.8799V22.3999H28.5869V23.0932H28.8002V22.5599H29.6002V23.0399H30.3469C30.4002 22.9866 30.4002 22.9332 30.4536 22.8799H29.7602Z" fill="white"/>
<path d="M18.4 17.0134C18.88 15.6267 18.4 14.0801 17.3333 13.1201C18.56 14.9334 18.08 17.3334 16.3733 18.6134L16.48 15.6267V13.2801C16.2667 13.1734 16.1067 13.0667 16 12.9067C15.8933 13.0667 15.7333 13.2267 15.52 13.2801V15.6267L15.6267 18.6134C13.8667 17.3334 13.44 14.9334 14.6667 13.1201C13.5467 14.0801 13.12 15.6267 13.6 17.0134C13.92 17.9734 14.56 18.6667 15.36 19.0934C14.88 19.2534 14.3467 19.3601 13.8133 19.3601C14.4533 19.5734 15.0933 19.5734 15.68 19.4667V19.5734L16 20.0001L16.32 19.5734V19.4667C16.9067 19.5734 17.5467 19.5734 18.1867 19.3601C17.6533 19.3601 17.12 19.3067 16.64 19.0934C17.44 18.6667 18.08 17.9201 18.4 17.0134Z" fill="#ED4C5C"/>
<path d="M19.5733 14.4534C19.1467 13.7601 18.4533 13.2268 17.6533 13.0134C19.4133 14.3468 19.7867 16.8534 18.4533 18.6134C19.9467 17.8134 20.4267 15.9468 19.5733 14.4534Z" fill="#ED4C5C"/>
<path d="M14.2929 13.0134C13.4929 13.2268 12.7996 13.7068 12.3729 14.4534C11.5196 15.8934 12.0529 17.7601 13.4929 18.6134C12.2129 16.8534 12.5329 14.3468 14.2929 13.0134Z" fill="#ED4C5C"/>
<path d="M15.1995 12.8C15.4662 12.96 15.8395 12.9067 15.9995 12.64C16.1595 12.9067 16.5328 12.96 16.7995 12.8C17.0128 12.64 17.1195 12.3734 17.0128 12.1067C16.9595 12.4267 16.6928 12.5867 16.3728 12.5334C16.2128 12.48 16.1062 12.4267 15.9995 12.2667C15.9462 12.4267 15.7862 12.48 15.6262 12.5334C15.3062 12.5867 15.0395 12.3734 14.9862 12.1067C14.8795 12.3734 14.9862 12.64 15.1995 12.8Z" fill="#ED4C5C"/>
</svg>
