<svg width="29" height="28" viewBox="0 0 29 28" fill="none" xmlns="http://www.w3.org/2000/svg">
<path d="M14.7502 18.6666C8.03025 18.6666 6.83981 11.9694 6.62892 6.65753C6.57026 5.17996 6.54093 4.44116 7.09594 3.75761C7.65094 3.07408 8.3152 2.96199 9.64372 2.73784C10.9551 2.51658 12.6694 2.33331 14.7502 2.33331C16.831 2.33331 18.5453 2.51658 19.8566 2.73784C21.1852 2.96199 21.8494 3.07408 22.4044 3.75761C22.9595 4.44116 22.9301 5.17996 22.8714 6.65753C22.6606 11.9694 21.4701 18.6666 14.7502 18.6666Z" stroke="white" stroke-width="1.5"/>
<path d="M22.9167 5.83331L24.0234 6.20222C25.1785 6.58725 25.756 6.77976 26.0863 7.23807C26.4167 7.69639 26.4167 8.30516 26.4166 9.52271V9.60733C26.4166 10.6115 26.4166 11.1136 26.1748 11.5244C25.9331 11.9352 25.4942 12.179 24.6164 12.6667L21.1667 14.5833" stroke="white" stroke-width="1.5"/>
<path d="M6.58327 5.83331L5.47655 6.20222C4.32148 6.58725 3.74395 6.77976 3.41363 7.23807C3.0833 7.69639 3.08331 8.30516 3.08334 9.52271V9.60733C3.08338 10.6115 3.08339 11.1136 3.32511 11.5244C3.56682 11.9352 4.00575 12.179 4.88357 12.6667L8.33327 14.5833" stroke="white" stroke-width="1.5"/>
<path d="M14.75 18.6666V22.1666" stroke="white" stroke-width="1.5" stroke-linecap="round"/>
<path d="M18.8334 25.6667H10.6667L11.0624 23.6879C11.1715 23.1426 11.6503 22.75 12.2065 22.75H17.2936C17.8497 22.75 18.3285 23.1426 18.4376 23.6879L18.8334 25.6667Z" stroke="white" stroke-width="1.5" stroke-linecap="round" stroke-linejoin="round"/>
<path d="M21.75 25.6666H7.75" stroke="white" stroke-width="1.5" stroke-linecap="round"/>
<path d="M14.1806 7.68167C14.4339 7.22723 14.5606 7 14.75 7C14.9394 7 15.0661 7.22723 15.3194 7.68167L15.3849 7.79925C15.4569 7.92839 15.4929 7.99296 15.549 8.03556C15.6051 8.07816 15.675 8.09398 15.8148 8.1256L15.9421 8.1544C16.434 8.26571 16.68 8.32136 16.7385 8.50954C16.797 8.69772 16.6293 8.89381 16.294 9.28598L16.2072 9.38744C16.1119 9.49888 16.0643 9.5546 16.0428 9.62354C16.0214 9.69248 16.0286 9.76681 16.043 9.91551L16.0561 10.0509C16.1068 10.5741 16.1322 10.8357 15.979 10.9521C15.8257 11.0683 15.5955 10.9623 15.1349 10.7503L15.0157 10.6954C14.8848 10.6351 14.8194 10.605 14.75 10.605C14.6806 10.605 14.6152 10.6351 14.4843 10.6954L14.3651 10.7503C13.9045 10.9623 13.6743 11.0683 13.521 10.9521C13.3678 10.8357 13.3932 10.5741 13.4439 10.0509L13.457 9.91551C13.4714 9.76681 13.4786 9.69248 13.4572 9.62354C13.4357 9.5546 13.3881 9.49888 13.2928 9.38744L13.206 9.28598C12.8706 8.89381 12.703 8.69772 12.7615 8.50954C12.82 8.32136 13.066 8.26571 13.5579 8.1544L13.6852 8.1256C13.825 8.09398 13.8949 8.07816 13.951 8.03556C14.0071 7.99296 14.0431 7.92839 14.1151 7.79925L14.1806 7.68167Z" stroke="#F3C73B"/>
</svg>
