<svg width="24" height="24" viewBox="0 0 24 24" fill="none" xmlns="http://www.w3.org/2000/svg">
<path d="M7.33329 12C6.68897 12 6.16663 12.5223 6.16663 13.1667C6.16663 13.811 6.68897 14.3333 7.33329 14.3333H16.6666C17.311 14.3333 17.8333 13.811 17.8333 13.1667C17.8333 12.5223 17.311 12 16.6666 12H7.33329Z" fill="#F3C73B"/>
<path d="M6.16663 17.8333C6.16663 17.1889 6.68897 16.6666 7.33329 16.6666H12C12.6443 16.6666 13.1666 17.1889 13.1666 17.8333C13.1666 18.4776 12.6443 19 12 19H7.33329C6.68897 19 6.16663 18.4776 6.16663 17.8333Z" fill="white"/>
<path fill-rule="evenodd" clip-rule="evenodd" d="M7.33331 1.49998C7.33331 0.855653 6.81097 0.333313 6.16665 0.333313C5.52232 0.333313 4.99998 0.855653 4.99998 1.49998V2.78334C2.33737 3.32382 0.333313 5.67786 0.333313 8.49998V17.8333C0.333313 21.0549 2.94499 23.6666 6.16665 23.6666H17.8333C21.0549 23.6666 23.6666 21.0549 23.6666 17.8333V8.49998C23.6666 5.67786 21.6625 3.32382 19 2.78334V1.49998C19 0.855653 18.4777 0.333313 17.8333 0.333313C17.189 0.333313 16.6666 0.855653 16.6666 1.49998V2.66665H7.33331V1.49998ZM21.3333 9.66665H2.66665V17.8333C2.66665 19.7664 4.23365 21.3333 6.16665 21.3333H17.8333C19.7664 21.3333 21.3333 19.7664 21.3333 17.8333V9.66665ZM2.86581 7.33331C3.34628 5.97393 4.64272 4.99998 6.16665 4.99998H17.8333C19.3572 4.99998 20.6537 5.97393 21.1342 7.33331H2.86581Z" fill="white"/>
</svg>
