<svg width="28" height="28" viewBox="0 0 28 28" fill="none" xmlns="http://www.w3.org/2000/svg">
<path fill-rule="evenodd" clip-rule="evenodd" d="M24.4108 13.7085C24.3871 13.7083 24.356 13.7083 24.3055 13.7083H21.2693C19.6086 13.7083 18.375 14.9435 18.375 16.3333C18.375 17.7232 19.6086 18.9583 21.2693 18.9583H24.3055C24.356 18.9583 24.3871 18.9583 24.4108 18.9581C24.4332 18.9578 24.4393 18.9574 24.4393 18.9574C24.6797 18.9428 24.7832 18.7805 24.7911 18.6829C24.7911 18.6829 24.7913 18.6756 24.7914 18.665C24.7917 18.6442 24.7917 18.6167 24.7917 18.5695V14.0972C24.7917 14.071 24.7917 14.051 24.7917 14.0346C24.7916 14.0216 24.7916 14.0108 24.7914 14.0016C24.7913 13.9911 24.7911 13.9838 24.7911 13.9838C24.7832 13.8861 24.6797 13.7238 24.4392 13.7092C24.4392 13.7092 24.4335 13.7088 24.4108 13.7085ZM24.3249 11.9583C24.4024 11.9583 24.477 11.9582 24.5456 11.9624C25.5621 12.0243 26.4612 12.7911 26.5368 13.8621C26.5418 13.9323 26.5417 14.008 26.5417 14.0781C26.5417 14.0846 26.5417 14.0909 26.5417 14.0972V18.5695C26.5417 18.5758 26.5417 18.5821 26.5417 18.5885C26.5417 18.6586 26.5418 18.7343 26.5368 18.8045C26.4612 19.8755 25.5621 20.6423 24.5456 20.7042C24.477 20.7084 24.4024 20.7083 24.3249 20.7083C24.3185 20.7083 24.3121 20.7083 24.3055 20.7083H21.2693C18.7665 20.7083 16.625 18.8094 16.625 16.3333C16.625 13.8572 18.7665 11.9583 21.2693 11.9583H24.3055C24.3121 11.9583 24.3185 11.9583 24.3249 11.9583Z" fill="white"/>
<path d="M22.1667 16.3334C22.1667 16.9777 21.6443 17.5 21 17.5C20.3556 17.5 19.8333 16.9777 19.8333 16.3334C19.8333 15.689 20.3556 15.1667 21 15.1667C21.6443 15.1667 22.1667 15.689 22.1667 16.3334Z" fill="white"/>
<path fill-rule="evenodd" clip-rule="evenodd" d="M24.3249 11.9583C24.4023 11.9583 24.477 11.9582 24.5456 11.9624C24.8086 11.9784 25.0637 12.0416 25.2988 12.1451C25.174 10.2709 24.8303 8.82657 23.7519 7.74811C22.8788 6.87503 21.7716 6.48755 20.4038 6.30365L20.3545 6.29713C20.3422 6.28806 20.3297 6.27927 20.3169 6.27074L15.9588 3.38107C14.4384 2.37298 12.3949 2.37298 10.8745 3.38107L6.51646 6.27074C6.50361 6.27927 6.49106 6.28806 6.47881 6.29713L6.42947 6.30365C5.06165 6.48755 3.95454 6.87503 3.08144 7.74811C2.20836 8.62121 1.82088 9.72832 1.63699 11.0961C1.45829 12.4252 1.45831 14.1234 1.45833 16.2675V16.3991C1.45831 18.5432 1.45829 20.2414 1.63699 21.5705C1.82088 22.9383 2.20836 24.0455 3.08144 24.9186C3.95454 25.7916 5.06165 26.1791 6.42947 26.363C7.75855 26.5417 9.4568 26.5417 11.6009 26.5417H15.2325C17.3766 26.5417 19.0748 26.5417 20.4038 26.363C21.7716 26.1791 22.8788 25.7916 23.7519 24.9186C24.8303 23.8401 25.174 22.3958 25.2988 20.5215C25.0637 20.625 24.8086 20.6883 24.5456 20.7042C24.477 20.7084 24.4023 20.7083 24.3249 20.7083H24.3055H23.5292C23.3964 22.2734 23.096 23.0995 22.5144 23.6811C22.0207 24.1748 21.3444 24.4708 20.1707 24.6286C18.9717 24.7898 17.3913 24.7917 15.1667 24.7917H11.6667C9.44204 24.7917 7.86159 24.7898 6.66265 24.6286C5.48888 24.4708 4.81262 24.1748 4.31888 23.6811C3.82513 23.1874 3.52919 22.5111 3.37138 21.3374C3.21018 20.1384 3.20833 18.5579 3.20833 16.3333C3.20833 14.1087 3.21018 12.5282 3.37138 11.3293C3.52919 10.1556 3.82513 9.47929 4.31888 8.98555C4.81262 8.4918 5.48888 8.19586 6.66265 8.03805C7.86159 7.87685 9.44204 7.875 11.6667 7.875H15.1667C17.3913 7.875 18.9717 7.87685 20.1707 8.03805C21.3444 8.19586 22.0207 8.4918 22.5144 8.98555C23.096 9.56717 23.3964 10.3933 23.5292 11.9583H24.3055H24.3249ZM11.6008 6.125H15.2325C15.835 6.12499 16.4024 6.12499 16.9363 6.12895L14.9918 4.83958C14.0575 4.22014 12.7758 4.22014 11.8417 4.83958L9.89704 6.12895C10.4309 6.12499 10.9983 6.12499 11.6008 6.125Z" fill="white"/>
<path d="M7 10.7917C6.51675 10.7917 6.125 11.1834 6.125 11.6667C6.125 12.1499 6.51675 12.5417 7 12.5417H11.6667C12.1499 12.5417 12.5417 12.1499 12.5417 11.6667C12.5417 11.1834 12.1499 10.7917 11.6667 10.7917H7Z" fill="#F3C73B"/>
<path fill-rule="evenodd" clip-rule="evenodd" d="M22.1667 16.3334C22.1667 16.9777 21.6443 17.5 21 17.5C20.3556 17.5 19.8333 16.9777 19.8333 16.3334C19.8333 15.689 20.3556 15.1667 21 15.1667C21.6443 15.1667 22.1667 15.689 22.1667 16.3334Z" fill="#F3C73B"/>
</svg>
