<svg width="29" height="28" viewBox="0 0 29 28" fill="none" xmlns="http://www.w3.org/2000/svg">
<path d="M11.11 15.5417C11.11 15.0585 10.7182 14.6667 10.235 14.6667C9.75174 14.6667 9.35999 15.0585 9.35999 15.5417V20.2084C9.35999 20.6916 9.75174 21.0834 10.235 21.0834C10.7182 21.0834 11.11 20.6916 11.11 20.2084V15.5417Z" fill="white"/>
<path d="M19.5683 14.6667C20.0516 14.6667 20.4433 15.0585 20.4433 15.5417V20.2084C20.4433 20.6916 20.0516 21.0834 19.5683 21.0834C19.0851 21.0834 18.6933 20.6916 18.6933 20.2084V15.5417C18.6933 15.0585 19.0851 14.6667 19.5683 14.6667Z" fill="white"/>
<path d="M15.7767 15.5417C15.7767 15.0585 15.3849 14.6667 14.9017 14.6667C14.4184 14.6667 14.0267 15.0585 14.0267 15.5417V20.2084C14.0267 20.6916 14.4184 21.0834 14.9017 21.0834C15.3849 21.0834 15.7767 20.6916 15.7767 20.2084V15.5417Z" fill="#F3C73B"/>
<path fill-rule="evenodd" clip-rule="evenodd" d="M21.0544 4.42681C20.4996 4.20997 19.8781 4.17336 19.0807 4.16757C18.7532 3.47731 18.0498 3 17.235 3H12.5683C11.7535 3 11.0502 3.47731 10.7227 4.16757C9.92524 4.17336 9.30371 4.20997 8.7489 4.42681C8.08602 4.68589 7.50944 5.12631 7.0851 5.69768C6.65701 6.27412 6.45607 7.01296 6.17947 8.02988L5.44696 10.7166C4.99487 10.9481 4.59927 11.2599 4.26927 11.6826C3.5436 12.6119 3.41509 13.719 3.54418 14.9888C3.66945 16.2209 4.05736 17.7725 4.54294 19.7147L4.57374 19.8379C4.88079 21.0662 5.13008 22.0634 5.42658 22.8417C5.73571 23.6531 6.12817 24.3181 6.77523 24.8234C7.42229 25.3286 8.1627 25.548 9.02488 25.6512C9.85184 25.75 10.8798 25.75 12.1458 25.75H17.6574C18.9235 25.75 19.9513 25.75 20.7784 25.6512C21.6406 25.548 22.3809 25.3286 23.028 24.8234C23.675 24.3181 24.0675 23.6531 24.3766 22.8417C24.6732 22.0634 24.9224 21.0662 25.2295 19.8379L25.2603 19.7148C25.7458 17.7726 26.1337 16.2209 26.259 14.9888C26.3881 13.719 26.2596 12.6119 25.534 11.6826C25.204 11.2599 24.8084 10.9482 24.3564 10.7167L23.6239 8.02988C23.3473 7.01296 23.1463 6.27412 22.7182 5.69768C22.2939 5.12631 21.7173 4.68589 21.0544 4.42681ZM9.38594 6.05675C9.64237 5.95652 9.95222 5.92703 10.7244 5.91922C11.0526 6.60763 11.7549 7.08333 12.5683 7.08333H17.235C18.0484 7.08333 18.7507 6.60763 19.079 5.91922C19.8511 5.92703 20.161 5.95652 20.4174 6.05675C20.7743 6.19625 21.0848 6.4334 21.3133 6.74107C21.5188 7.01773 21.6393 7.40426 21.9787 8.64893L22.3912 10.1618C21.1804 9.99995 19.6173 9.99998 17.6753 10H12.128C10.186 9.99998 8.62288 9.99995 7.41213 10.1618L7.82464 8.64894C8.16402 7.40426 8.28458 7.01772 8.49004 6.74106C8.71854 6.4334 9.029 6.19625 9.38594 6.05675ZM12.5683 4.75C12.4072 4.75 12.2767 4.88058 12.2767 5.04167C12.2767 5.20275 12.4072 5.33333 12.5683 5.33333H17.235C17.3961 5.33333 17.5267 5.20275 17.5267 5.04167C17.5267 4.88058 17.3961 4.75 17.235 4.75H12.5683ZM5.64863 12.7595C5.97393 12.3429 6.48841 12.063 7.55144 11.9092C8.63717 11.7522 10.1093 11.75 12.2004 11.75H17.6028C19.6939 11.75 21.1661 11.7522 22.2518 11.9092C23.3148 12.063 23.8293 12.3429 24.1546 12.7595C24.4799 13.1762 24.6266 13.7431 24.518 14.8118C24.4071 15.9032 24.0522 17.3319 23.5449 19.3605C23.2215 20.6545 22.9962 21.5495 22.7413 22.2186C22.4948 22.8658 22.2534 23.208 21.951 23.4441C21.6486 23.6801 21.2581 23.8313 20.5706 23.9135C19.8596 23.9986 18.9366 24 17.6028 24H12.2004C10.8667 24 9.94362 23.9986 9.23266 23.9135C8.54508 23.8313 8.15456 23.6801 7.8522 23.4441C7.54985 23.208 7.30846 22.8658 7.06193 22.2186C6.80701 21.5495 6.58173 20.6545 6.25826 19.3605C5.7511 17.3319 5.39616 15.9032 5.28521 14.8118C5.17657 13.7431 5.32331 13.1762 5.64863 12.7595Z" fill="white"/>
</svg>
