<svg width="22" height="22" viewBox="0 0 22 22" fill="none" xmlns="http://www.w3.org/2000/svg">
<path d="M4.84961 11.1676L7.72606 4.19812" stroke="#F3C73B" stroke-linecap="round" stroke-linejoin="round"/>
<path d="M10.4841 11.1892L7.72656 4.19812" stroke="#F3C73B" stroke-linecap="round" stroke-linejoin="round"/>
<path d="M9.56441 8.84808H5.80664" stroke="#F3C73B" stroke-linecap="round" stroke-linejoin="round"/>
<path d="M15.6689 11.7461H19.3024" stroke="#F3C73B" stroke-linecap="round" stroke-linejoin="round"/>
<path d="M17.3177 11.7461C17.3177 14.0927 14.4574 17.9694 11.5918 18.5642" stroke="#F3C73B" stroke-linecap="round" stroke-linejoin="round"/>
<path d="M13.127 15.7526C14.2786 17.0502 16.1602 18.3154 17.8958 18.5641" stroke="#F3C73B" stroke-linecap="round" stroke-linejoin="round"/>
<path d="M12.3706 0.997314H2.9681C1.88115 0.997314 1 1.87846 1 2.96541V12.368C1 13.4549 1.88115 14.3361 2.9681 14.3361H12.3706C13.4576 14.3361 14.3387 13.4549 14.3387 12.368V2.96541C14.3387 1.87846 13.4576 0.997314 12.3706 0.997314Z" stroke="#F3C73B" stroke-linecap="round" stroke-linejoin="round"/>
<path d="M7.66699 14.3361V19.0346C7.66699 20.116 8.55372 21.0027 9.63509 21.0027H19.0322C20.1136 21.0027 21.0003 20.116 21.0003 19.0346V9.6321C21.0003 8.55073 20.1136 7.664 19.0322 7.664H14.3337" stroke="#F3C73B" stroke-linecap="round" stroke-linejoin="round"/>
</svg>
