<svg width="21" height="20" viewBox="0 0 21 20" fill="none" xmlns="http://www.w3.org/2000/svg">
<path fill-rule="evenodd" clip-rule="evenodd" d="M14.5 10C14.5 9.58581 14.1642 9.25001 13.75 9.25001H2.77744L4.73809 7.56945C5.05259 7.29989 5.08901 6.82641 4.81944 6.51192C4.54988 6.19742 4.0764 6.161 3.76191 6.43057L0.26191 9.43061C0.09567 9.57301 0 9.78111 0 10C0 10.2189 0.09567 10.427 0.26191 10.5694L3.76191 13.5694C4.0764 13.839 4.54988 13.8026 4.81944 13.4881C5.08901 13.1736 5.05259 12.7001 4.73809 12.4306L2.77744 10.75H13.75C14.1642 10.75 14.5 10.4142 14.5 10Z" fill="#FF1E38"/>
<path d="M7.75 6C7.75 6.70219 7.75 7.05329 7.91851 7.3055C7.99148 7.41471 8.08525 7.50848 8.19446 7.58145C8.4467 7.74996 8.7978 7.74996 9.5 7.74996H13.75C14.9926 7.74996 16 8.7573 16 10C16 11.2426 14.9926 12.25 13.75 12.25H9.5C8.7978 12.25 8.4466 12.25 8.1944 12.4185C8.08523 12.4915 7.9915 12.5852 7.91855 12.6944C7.75 12.9466 7.75 13.2977 7.75 14C7.75 16.8284 7.75 18.2426 8.6287 19.1213C9.5074 20 10.9214 20 13.7498 20H14.7498C17.5782 20 18.9924 20 19.8711 19.1213C20.7498 18.2426 20.7498 16.8284 20.7498 14V6C20.7498 3.17158 20.7498 1.75736 19.8711 0.87868C18.9924 0 17.5782 0 14.7498 0H13.7498C10.9214 0 9.5074 0 8.6287 0.87868C7.75 1.75736 7.75 3.17157 7.75 6Z" fill="#FF1E38"/>
</svg>
