<svg width="18" height="18" viewBox="0 0 18 18" fill="none" xmlns="http://www.w3.org/2000/svg">
<path d="M16.1075 14.2107C15.442 13.0277 14.352 11.6878 12.5775 10.926C11.5626 11.636 10.3297 12.0541 9.00053 12.0541C7.67064 12.0541 6.43771 11.6361 5.42278 10.926C3.64831 11.6878 2.55829 13.0277 1.89317 14.2107C1.01043 15.7798 1.70251 18 3.22917 18C4.75587 18 9.00057 18 9.00057 18C9.00057 18 13.2448 18 14.7716 18C16.2982 18 16.9903 15.7798 16.1075 14.2107Z" fill="#F3C73B"/>
<path d="M9.00007 10.5694C11.6067 10.5694 13.7191 8.45624 13.7191 5.84997V4.71941C13.7191 2.11317 11.6067 0 9.00007 0C6.39306 0 4.28027 2.11317 4.28027 4.71945V5.85C4.28027 8.45624 6.39309 10.5694 9.00007 10.5694Z" fill="#F3C73B"/>
</svg>
