<svg width="22" height="22" viewBox="0 0 22 22" fill="none" xmlns="http://www.w3.org/2000/svg">
<rect width="22" height="22" rx="11" fill="#F3C73B"/>
<g clip-path="url(#clip0_3229_12580)">
<path d="M8.79599 5C7.66998 5.48392 6.71069 6.2851 6.03623 7.30491C5.36176 8.32472 5.00157 9.51864 5 10.7397C5 12.4 5.66249 13.9923 6.84174 15.1664C8.02099 16.3404 9.62039 17 11.2881 17C12.4918 16.9988 13.6698 16.6537 14.6823 16.0056C15.6948 15.3576 16.4992 14.4338 17 13.3441C16.2133 13.6851 15.3649 13.8623 14.5069 13.8647C12.8392 13.8647 11.2398 13.2052 10.0605 12.0311C8.88126 10.8571 8.21876 9.26474 8.21876 7.6044C8.22104 6.70507 8.41792 5.81678 8.79599 5Z" fill="white"/>
</g>
<defs>
<clipPath id="clip0_3229_12580">
<rect width="12" height="12" fill="white" transform="translate(5 5)"/>
</clipPath>
</defs>
</svg>
