<svg width="18" height="18" viewBox="0 0 18 18" fill="none" xmlns="http://www.w3.org/2000/svg">
<g clip-path="url(#clip0_3229_12692)">
<path fill-rule="evenodd" clip-rule="evenodd" d="M16 7.184C16 3.14 12.86 0 9 0C5.14 0 2 3.14 2 7C0.837 7.597 0 8.696 0 10V12C0 12.7956 0.316071 13.5587 0.87868 14.1213C1.44129 14.6839 2.20435 15 3 15H4C4.26522 15 4.51957 14.8946 4.70711 14.7071C4.89464 14.5196 5 14.2652 5 14V8C5 7.73478 4.89464 7.48043 4.70711 7.29289C4.51957 7.10536 4.26522 7 4 7C4 5.67392 4.52678 4.40215 5.46447 3.46447C6.40215 2.52678 7.67392 2 9 2C10.3261 2 11.5979 2.52678 12.5355 3.46447C13.4732 4.40215 14 5.67392 14 7C13.7348 7 13.4804 7.10536 13.2929 7.29289C13.1054 7.48043 13 7.73478 13 8V14C13 14.2652 13.1054 14.5196 13.2929 14.7071C13.4804 14.8946 13.7348 15 14 15V16H11.408C11.202 15.419 10.652 15 10 15H8C7.60218 15 7.22064 15.158 6.93934 15.4393C6.65804 15.7206 6.5 16.1022 6.5 16.5C6.5 16.8978 6.65804 17.2794 6.93934 17.5607C7.22064 17.842 7.60218 18 8 18H14C14.5304 18 15.0391 17.7893 15.4142 17.4142C15.7893 17.0391 16 16.5304 16 16V14.817C16.5837 14.6119 17.0895 14.2308 17.4477 13.7263C17.8058 13.2218 17.9988 12.6187 18 12V10C17.9989 9.38139 17.8059 8.77835 17.4477 8.274C17.0895 7.76965 16.5837 7.38882 16 7.184L-7 62L16 7.184Z" fill="#F3C73B"/>
</g>
<defs>
<clipPath id="clip0_3229_12692">
<rect width="18" height="18" fill="white"/>
</clipPath>
</defs>
</svg>
