<svg width="22" height="22" viewBox="0 0 22 22" fill="none" xmlns="http://www.w3.org/2000/svg">
<rect width="22" height="22" rx="11" fill="#F3C73B"/>
<path d="M14.349 11C14.349 12.8495 12.8497 14.3489 11.0002 14.3489C9.15069 14.3489 7.65137 12.8495 7.65137 11C7.65137 9.15051 9.15069 7.65118 11.0002 7.65118C12.8497 7.65118 14.349 9.15051 14.349 11Z" fill="white"/>
<path fill-rule="evenodd" clip-rule="evenodd" d="M11 5C11.2312 5 11.4186 5.18742 11.4186 5.4186V5.97674C11.4186 6.20793 11.2312 6.39535 11 6.39535C10.7688 6.39535 10.5814 6.20793 10.5814 5.97674V5.4186C10.5814 5.18742 10.7688 5 11 5ZM6.75736 6.75736C6.92084 6.59389 7.18589 6.59389 7.34936 6.75736L7.56862 6.97662C7.73209 7.1401 7.73209 7.40514 7.56862 7.56862C7.40514 7.73209 7.1401 7.73209 6.97662 7.56862L6.75736 7.34936C6.59389 7.18589 6.59389 6.92084 6.75736 6.75736ZM15.2425 6.75751C15.406 6.92098 15.406 7.18603 15.2425 7.34951L15.0232 7.56876C14.8598 7.73224 14.5947 7.73224 14.4312 7.56876C14.2677 7.40529 14.2677 7.14024 14.4312 6.97677L14.6505 6.75751C14.814 6.59404 15.079 6.59404 15.2425 6.75751ZM5 11C5 10.7688 5.18742 10.5814 5.4186 10.5814H5.97674C6.20793 10.5814 6.39535 10.7688 6.39535 11C6.39535 11.2312 6.20793 11.4186 5.97674 11.4186H5.4186C5.18742 11.4186 5 11.2312 5 11ZM15.6047 11C15.6047 10.7688 15.7921 10.5814 16.0233 10.5814H16.5814C16.8126 10.5814 17 10.7688 17 11C17 11.2312 16.8126 11.4186 16.5814 11.4186H16.0233C15.7921 11.4186 15.6047 11.2312 15.6047 11ZM14.4312 14.4312C14.5947 14.2677 14.8598 14.2677 15.0232 14.4312L15.2425 14.6505C15.406 14.814 15.406 15.079 15.2425 15.2425C15.079 15.406 14.814 15.406 14.6505 15.2425L14.4312 15.0232C14.2677 14.8598 14.2677 14.5947 14.4312 14.4312ZM7.56862 14.4314C7.73209 14.5949 7.73209 14.8599 7.56862 15.0234L7.34936 15.2426C7.18589 15.4061 6.92084 15.4061 6.75736 15.2426C6.59389 15.0792 6.59389 14.8141 6.75736 14.6506L6.97662 14.4314C7.1401 14.2679 7.40514 14.2679 7.56862 14.4314ZM11 15.6047C11.2312 15.6047 11.4186 15.7921 11.4186 16.0233V16.5814C11.4186 16.8126 11.2312 17 11 17C10.7688 17 10.5814 16.8126 10.5814 16.5814V16.0233C10.5814 15.7921 10.7688 15.6047 11 15.6047Z" fill="white"/>
</svg>
