<svg width="29" height="28" viewBox="0 0 29 28" fill="none" xmlns="http://www.w3.org/2000/svg">
<path d="M14.2506 18.6667C7.53065 18.6667 6.34021 11.9695 6.12932 6.65759C6.07066 5.18002 6.04133 4.44123 6.59634 3.75768C7.15133 3.07414 7.8156 2.96206 9.14411 2.7379C10.4555 2.51665 12.1698 2.33337 14.2506 2.33337C16.3314 2.33337 18.0457 2.51665 19.357 2.7379C20.6856 2.96206 21.3498 3.07414 21.9048 3.75768C22.4599 4.44123 22.4305 5.18002 22.3718 6.65759C22.161 11.9695 20.9705 18.6667 14.2506 18.6667Z" stroke="#595959" stroke-width="1.5"/>
<path d="M22.417 5.83337L23.5237 6.20229C24.6788 6.58731 25.2563 6.77982 25.5866 7.23813C25.917 7.69645 25.917 8.30523 25.9169 9.52277V9.60739C25.9169 10.6116 25.9169 11.1137 25.6751 11.5245C25.4334 11.9353 24.9945 12.1791 24.1167 12.6668L20.667 14.5834" stroke="#595959" stroke-width="1.5"/>
<path d="M6.08343 5.83337L4.9767 6.20229C3.82163 6.58731 3.2441 6.77982 2.91378 7.23813C2.58345 7.69645 2.58346 8.30523 2.5835 9.52277V9.60739C2.58353 10.6116 2.58354 11.1137 2.82527 11.5245C3.06698 11.9353 3.5059 12.1791 4.38372 12.6668L7.83343 14.5834" stroke="#595959" stroke-width="1.5"/>
<path d="M14.25 18.6667V22.1667" stroke="#595959" stroke-width="1.5" stroke-linecap="round"/>
<path d="M18.3337 25.6667H10.167L10.5627 23.6879C10.6718 23.1426 11.1506 22.75 11.7068 22.75H16.7939C17.35 22.75 17.8288 23.1426 17.9379 23.6879L18.3337 25.6667Z" stroke="#595959" stroke-width="1.5" stroke-linecap="round" stroke-linejoin="round"/>
<path d="M21.25 25.6667H7.25" stroke="#595959" stroke-width="1.5" stroke-linecap="round"/>
<path d="M13.6806 7.68167C13.9339 7.22723 14.0606 7 14.25 7C14.4394 7 14.5661 7.22723 14.8194 7.68167L14.8849 7.79925C14.9569 7.92839 14.9929 7.99296 15.049 8.03556C15.1051 8.07816 15.175 8.09398 15.3148 8.1256L15.4421 8.1544C15.934 8.26571 16.18 8.32136 16.2385 8.50954C16.297 8.69772 16.1293 8.89381 15.794 9.28598L15.7072 9.38744C15.6119 9.49888 15.5643 9.5546 15.5428 9.62354C15.5214 9.69248 15.5286 9.76681 15.543 9.91551L15.5561 10.0509C15.6068 10.5741 15.6322 10.8357 15.479 10.9521C15.3257 11.0683 15.0955 10.9623 14.6349 10.7503L14.5157 10.6954C14.3848 10.6351 14.3194 10.605 14.25 10.605C14.1806 10.605 14.1152 10.6351 13.9843 10.6954L13.8651 10.7503C13.4045 10.9623 13.1743 11.0683 13.021 10.9521C12.8678 10.8357 12.8932 10.5741 12.9439 10.0509L12.957 9.91551C12.9714 9.76681 12.9786 9.69248 12.9572 9.62354C12.9357 9.5546 12.8881 9.49888 12.7928 9.38744L12.706 9.28598C12.3706 8.89381 12.203 8.69772 12.2615 8.50954C12.32 8.32136 12.566 8.26571 13.0579 8.1544L13.1852 8.1256C13.325 8.09398 13.3949 8.07816 13.451 8.03556C13.5071 7.99296 13.5431 7.92839 13.6151 7.79925L13.6806 7.68167Z" stroke="#595959"/>
</svg>
