<svg width="26" height="27" viewBox="0 0 26 27" fill="none" xmlns="http://www.w3.org/2000/svg">
<path d="M25.7498 8.20293V8.2936C25.7498 9.36952 25.7498 9.90749 25.4908 10.3476C25.2318 10.7878 24.7616 11.049 23.8211 11.5715L22.8295 12.1225C23.5127 9.81231 23.7407 7.33018 23.8251 5.20747C23.8286 5.11646 23.8327 5.02432 23.8368 4.93122L23.8397 4.866C24.6538 5.14871 25.1108 5.35948 25.396 5.75511C25.75 6.24616 25.75 6.89842 25.7498 8.20293Z" fill="#595959"/>
<path d="M0.750001 8.20291V8.29358C0.750038 9.3695 0.750051 9.90746 1.00904 10.3476C1.26803 10.7877 1.73829 11.049 2.67881 11.5715L3.67101 12.1227C2.98759 9.8125 2.75959 7.33026 2.67531 5.20745C2.6717 5.11644 2.66763 5.0243 2.66351 4.9312L2.66063 4.86581C1.84626 5.14861 1.38908 5.35939 1.10388 5.75509C0.749951 6.24614 0.749963 6.8984 0.750001 8.20291Z" fill="#595959"/>
<path fill-rule="evenodd" clip-rule="evenodd" d="M13.2502 0.5C15.4796 0.5 17.3164 0.696362 18.7214 0.933425C20.1449 1.17359 20.8565 1.29367 21.4511 2.02604C22.0459 2.75841 22.0144 3.54997 21.9515 5.13309C21.7357 10.5681 20.5629 17.3566 14.1875 17.9571V22.375H15.9752C16.5711 22.375 17.0841 22.7956 17.201 23.3799L17.4375 24.5625H20.75C21.2677 24.5625 21.6875 24.9822 21.6875 25.5C21.6875 26.0177 21.2677 26.4375 20.75 26.4375H5.75C5.23224 26.4375 4.8125 26.0177 4.8125 25.5C4.8125 24.9822 5.23224 24.5625 5.75 24.5625H9.0625L9.29902 23.3799C9.41589 22.7956 9.9289 22.375 10.5247 22.375H12.3125V17.9571C5.93745 17.3564 4.76461 10.568 4.54884 5.13309C4.48599 3.54997 4.45456 2.75841 5.04921 2.02604C5.64385 1.29367 6.35556 1.17359 7.77897 0.933425C9.18405 0.696362 11.0207 0.5 13.2502 0.5ZM14.4405 5.74859L14.3176 5.52814C13.8426 4.67605 13.6051 4.25 13.25 4.25C12.8949 4.25 12.6574 4.67605 12.1824 5.52814L12.0595 5.74859C11.9246 5.99072 11.8571 6.1118 11.7519 6.19167C11.6466 6.27156 11.5156 6.30121 11.2535 6.36051L11.0149 6.41451C10.0924 6.62321 9.63126 6.72756 9.52154 7.0804C9.41181 7.43324 9.72621 7.8009 10.355 8.53622L10.5177 8.72646C10.6964 8.93541 10.7857 9.03989 10.826 9.16915C10.8661 9.2984 10.8526 9.43779 10.8256 9.71659L10.801 9.9704C10.7059 10.9515 10.6584 11.442 10.9456 11.6601C11.233 11.8781 11.6647 11.6794 12.5284 11.2817L12.7517 11.1789C12.9972 11.0659 13.1199 11.0094 13.25 11.0094C13.3801 11.0094 13.5027 11.0659 13.7482 11.1789L13.9716 11.2817C14.8352 11.6794 15.267 11.8781 15.5544 11.6601C15.8416 11.442 15.794 10.9515 15.699 9.9704L15.6744 9.71659C15.6474 9.43779 15.6339 9.2984 15.674 9.16915C15.7142 9.03989 15.8036 8.93541 15.9822 8.72646L16.145 8.53622C16.7737 7.8009 17.0882 7.43324 16.9785 7.0804C16.8687 6.72756 16.4075 6.62321 15.4851 6.41451L15.2465 6.36051C14.9844 6.30121 14.8534 6.27156 14.7481 6.19167C14.6429 6.1118 14.5754 5.99072 14.4405 5.74859Z" fill="#595959"/>
</svg>
