<svg width="29" height="28" viewBox="0 0 29 28" fill="none" xmlns="http://www.w3.org/2000/svg">
<path d="M10.0837 14C9.43933 14 8.91699 14.5223 8.91699 15.1667C8.91699 15.811 9.43933 16.3333 10.0837 16.3333H19.417C20.0613 16.3333 20.5837 15.811 20.5837 15.1667C20.5837 14.5223 20.0613 14 19.417 14H10.0837Z" fill="#595959"/>
<path d="M8.91699 19.8334C8.91699 19.1891 9.43933 18.6667 10.0837 18.6667H14.7503C15.3947 18.6667 15.917 19.1891 15.917 19.8334C15.917 20.4778 15.3947 21.0001 14.7503 21.0001H10.0837C9.43933 21.0001 8.91699 20.4778 8.91699 19.8334Z" fill="#595959"/>
<path fill-rule="evenodd" clip-rule="evenodd" d="M10.0835 3.50004C10.0835 2.85571 9.56116 2.33337 8.91683 2.33337C8.2725 2.33337 7.75016 2.85571 7.75016 3.50004V4.7834C5.08755 5.32388 3.0835 7.67792 3.0835 10.5V19.8334C3.0835 23.055 5.69517 25.6667 8.91683 25.6667H20.5835C23.8051 25.6667 26.4168 23.055 26.4168 19.8334V10.5C26.4168 7.67792 24.4127 5.32388 21.7502 4.7834V3.50004C21.7502 2.85571 21.2278 2.33337 20.5835 2.33337C19.9391 2.33337 19.4168 2.85571 19.4168 3.50004V4.66671H10.0835V3.50004ZM24.0835 11.6667H5.41683V19.8334C5.41683 21.7664 6.98384 23.3334 8.91683 23.3334H20.5835C22.5165 23.3334 24.0835 21.7664 24.0835 19.8334V11.6667ZM5.61599 9.33337C6.09646 7.97399 7.39291 7.00004 8.91683 7.00004H20.5835C22.1074 7.00004 23.4039 7.97399 23.8843 9.33337H5.61599Z" fill="#595959"/>
</svg>
