<svg width="28" height="28" viewBox="0 0 28 28" fill="none" xmlns="http://www.w3.org/2000/svg">
<path fill-rule="evenodd" clip-rule="evenodd" d="M23.8921 8.84133L17.6085 3.64587C15.4918 1.89583 12.5082 1.89583 10.3915 3.64587L4.10778 8.84133C2.97567 9.77737 2.33331 11.1966 2.33331 12.6774V22.0196C2.33331 23.9656 3.83415 25.6667 5.83331 25.6667H8.16665C10.0996 25.6667 11.6666 24.0997 11.6666 22.1667V18.2989C11.6666 17.5051 12.2551 16.9852 12.8333 16.9852H15.1666C15.7448 16.9852 16.3333 17.5051 16.3333 18.2989V22.1667C16.3333 24.0997 17.9003 25.6667 19.8333 25.6667H22.1666C24.1658 25.6667 25.6666 23.9656 25.6666 22.0196V12.6774C25.6666 11.1966 25.0243 9.77737 23.8921 8.84133Z" fill="#595959"/>
</svg>
