<svg width="29" height="28" viewBox="0 0 29 28" fill="none" xmlns="http://www.w3.org/2000/svg">
<path fill-rule="evenodd" clip-rule="evenodd" d="M15.249 2.33334C13.9496 2.33334 12.7661 3.03416 10.3993 4.43581L9.59878 4.90988C7.23194 6.31152 6.04851 7.01234 5.39877 8.16668C4.74902 9.32101 4.74902 10.7227 4.74902 13.526V14.474C4.74902 17.2774 4.74902 18.679 5.39877 19.8333C6.04851 20.9876 7.23194 21.6885 9.59878 23.0901L10.3993 23.5642C12.7661 24.9659 13.9496 25.6667 15.249 25.6667C16.5485 25.6667 17.7319 24.9659 20.0988 23.5642L20.8993 23.0901C23.2661 21.6885 24.4496 20.9876 25.0993 19.8333C25.749 18.679 25.749 17.2774 25.749 14.474V13.526C25.749 10.7227 25.749 9.32101 25.0993 8.16668C24.4496 7.01234 23.2661 6.31152 20.8993 4.90988L20.0988 4.43581C17.7319 3.03416 16.5485 2.33334 15.249 2.33334ZM10.874 14C10.874 11.5838 12.8328 9.62501 15.249 9.62501C17.6653 9.62501 19.624 11.5838 19.624 14C19.624 16.4163 17.6653 18.375 15.249 18.375C12.8328 18.375 10.874 16.4163 10.874 14Z" fill="#595959"/>
</svg>
