<svg width="37" height="38" viewBox="0 0 37 38" fill="none" xmlns="http://www.w3.org/2000/svg">
<g filter="url(#filter0_i_374_65)">
<path opacity="0.838" fill-rule="evenodd" clip-rule="evenodd" d="M17.3076 2.41503C17.4915 2.38644 17.6481 2.43462 17.7774 2.55956C17.8496 3.28142 17.8737 4.00407 17.8496 4.72753C17.681 4.92024 17.5124 4.92024 17.3438 4.72753C17.2477 3.95268 17.2356 3.18184 17.3076 2.41503Z" fill="black"/>
<path opacity="0.96" fill-rule="evenodd" clip-rule="evenodd" d="M27.4248 3.42676C27.7742 3.47449 27.9067 3.66719 27.8223 4.00488C25.7764 8.13277 23.7409 12.2639 21.7158 16.3984C23.225 16.2172 24.7305 15.9884 26.2324 15.7119C26.4846 15.6871 26.6411 15.7955 26.7021 16.0371C25.3495 18.4853 23.9524 20.9062 22.5107 23.2998C23.0415 23.2701 23.5715 23.3062 24.1006 23.4082C24.2125 23.4959 24.2968 23.6043 24.3535 23.7334C24.4944 24.7284 25.0124 25.4391 25.9072 25.8652C26.9591 26.2646 28.019 26.2887 29.0869 25.9375C30.1065 25.5002 30.4798 24.7414 30.207 23.6611C30.0203 23.1638 29.671 22.8386 29.1592 22.6855C28.0417 22.3399 26.9096 22.0508 25.7627 21.8184C25.6075 21.6684 25.5833 21.4998 25.6904 21.3125C26.0823 21.2897 26.4677 21.3379 26.8467 21.457C27.5211 21.6256 28.1957 21.7943 28.8701 21.9629C30.5426 22.4293 31.1568 23.5012 30.7129 25.1787C30.4011 25.8277 29.9073 26.2734 29.2314 26.5156C27.7306 26.9774 26.3094 26.8087 24.9678 26.0098C24.3379 25.461 23.9404 24.7745 23.7754 23.9502C22.3403 23.9448 20.907 24.0532 19.4756 24.2754C19.3814 24.3335 19.3332 24.4178 19.3311 24.5283C19.6795 27.0796 21.0526 28.8019 23.4502 29.6953C25.8586 30.3983 28.2915 30.4946 30.749 29.9844C34.3625 28.9384 35.9162 26.5416 35.4102 22.7939C35.0985 21.1228 34.1952 19.8822 32.7002 19.0723C32.0543 18.7364 31.3798 18.4715 30.6768 18.2773C29.5272 17.9848 28.3709 17.7198 27.208 17.4824C27.0044 17.2022 27.0766 17.0215 27.4248 16.9404C29.0782 17.2153 30.6922 17.6368 32.2666 18.2051C35.126 19.4781 36.3907 21.6822 36.0605 24.8174C35.7452 27.7106 34.1915 29.5774 31.3994 30.418C29.075 30.9884 26.7384 31.0366 24.3896 30.5625C22.5105 30.2335 21.017 29.3062 19.9092 27.7803C18.5452 30.0867 17.1722 32.3871 15.79 34.6816C15.4752 34.7538 15.3065 34.6334 15.2842 34.3203C16.4307 30.2163 17.611 26.1212 18.8252 22.0352C18.8131 21.999 18.8011 21.9629 18.7891 21.9268C17.3325 22.235 15.8752 22.5481 14.417 22.8662C14.1886 22.8068 14.0682 22.6623 14.0557 22.4326C15.5657 17.1917 17.0833 11.9524 18.6084 6.71484C18.6766 6.60812 18.7729 6.53586 18.8975 6.49805C21.7553 5.49345 24.5977 4.46969 27.4248 3.42676Z" fill="black"/>
<path opacity="0.829" fill-rule="evenodd" clip-rule="evenodd" d="M10.8037 5.95605C10.9501 5.94434 11.0947 5.95638 11.2373 5.99219C11.7552 6.36556 12.273 6.73893 12.791 7.1123C12.8429 7.55356 12.6622 7.66196 12.249 7.4375C11.7913 7.12435 11.3336 6.81119 10.8759 6.49805C10.7159 6.33606 10.6918 6.1554 10.8037 5.95605Z" fill="black"/>
<path opacity="0.857" fill-rule="evenodd" clip-rule="evenodd" d="M1.33696 8.91896C3.0715 8.90689 4.80588 8.91896 6.54008 8.95509C6.70974 8.98009 6.84223 9.06443 6.93755 9.20802C7.10572 9.92901 7.2743 10.6517 7.44341 11.376C8.73103 15.648 10.0318 19.9116 11.3457 24.167C12.5502 20.1683 13.7546 16.1696 14.959 12.1709C15.2568 11.1968 15.4976 10.2092 15.6817 9.20802C16.0575 8.89056 16.4671 8.84235 16.9102 9.06349C16.9572 9.18887 16.9453 9.30933 16.8741 9.42481C16.6425 9.47569 16.4137 9.52382 16.1875 9.56935C16.0163 10.4954 15.7995 11.4107 15.5372 12.3154C14.1925 16.6625 12.8917 21.0226 11.6348 25.3955C11.5015 25.7059 11.3087 25.7541 11.0567 25.54C9.77571 21.0948 8.45079 16.6625 7.08208 12.2432C6.80861 11.3421 6.60385 10.4267 6.46782 9.49708C4.78093 9.47302 3.09473 9.49708 1.40923 9.56935C3.80253 16.0385 6.10298 22.5424 8.31059 29.0811C8.39493 29.1654 8.47919 29.2497 8.56352 29.334C10.4487 29.4049 12.3276 29.3808 14.2002 29.2617C14.8854 27.3029 15.5719 25.3397 16.2598 23.3721C16.5263 23.1741 16.707 23.2343 16.8018 23.5527C16.1349 25.4569 15.4966 27.372 14.8868 29.2979C14.7692 29.6275 14.5403 29.8323 14.2002 29.9121C12.2731 29.9603 10.3461 29.9603 8.41899 29.9121C8.0938 29.7797 7.86493 29.5508 7.73247 29.2256C5.52978 22.7138 3.24137 16.234 0.867233 9.78614C0.780385 9.35725 0.936962 9.06818 1.33696 8.91896Z" fill="black"/>
<path opacity="0.859" fill-rule="evenodd" clip-rule="evenodd" d="M27.3525 8.91894C29.5814 8.83749 31.6049 9.42761 33.4228 10.6894C34.6403 11.751 35.4112 13.0758 35.7353 14.6641C35.7113 15.0736 35.4945 15.2904 35.085 15.3144C33.4742 15.5176 31.8602 15.6621 30.2432 15.748C30.1588 15.6637 30.0746 15.5794 29.9902 15.4951C29.6363 14.1317 28.745 13.4814 27.3164 13.5439C26.5765 13.5577 25.914 13.7865 25.3291 14.2305C25.2328 14.375 25.1364 14.5195 25.04 14.6641C24.6358 14.8023 24.4792 14.6698 24.5703 14.2666C25.2297 13.3791 26.1211 12.9455 27.2441 12.9658C28.9224 12.8692 30.0184 13.6039 30.5322 15.1699C32.0452 15.0729 33.5507 14.9163 35.0488 14.7002C34.7247 12.8581 33.7491 11.4731 32.1221 10.5449C30.5933 9.82016 28.9793 9.45883 27.2803 9.46093C27.0786 9.24529 27.1026 9.06462 27.3525 8.91894Z" fill="black"/>
<path opacity="0.834" fill-rule="evenodd" clip-rule="evenodd" d="M25.4013 32.6221C25.5852 32.5935 25.7418 32.6417 25.871 32.7666C26.2501 33.3143 26.5994 33.8804 26.9189 34.4648C26.9019 34.5279 26.8778 34.5882 26.8466 34.6455C26.688 34.7372 26.5315 34.7372 26.3769 34.6455C26.0396 34.1156 25.7024 33.5856 25.3652 33.0557C25.3162 32.9041 25.3283 32.7595 25.4013 32.6221Z" fill="black"/>
<path opacity="0.829" fill-rule="evenodd" clip-rule="evenodd" d="M19.6923 33.2002C19.937 33.1489 20.1056 33.2332 20.1982 33.4531C19.9929 34.1294 19.752 34.7919 19.4755 35.4404C19.1175 35.5759 18.9609 35.4555 19.0058 35.0791C19.2282 34.448 19.457 33.8217 19.6923 33.2002Z" fill="black"/>
</g>
<defs>
<filter id="filter0_i_374_65" x="0" y="0.5" width="37" height="37" filterUnits="userSpaceOnUse" color-interpolation-filters="sRGB">
<feFlood flood-opacity="0" result="BackgroundImageFix"/>
<feBlend mode="normal" in="SourceGraphic" in2="BackgroundImageFix" result="shape"/>
<feColorMatrix in="SourceAlpha" type="matrix" values="0 0 0 0 0 0 0 0 0 0 0 0 0 0 0 0 0 0 127 0" result="hardAlpha"/>
<feOffset/>
<feGaussianBlur stdDeviation="0.25"/>
<feComposite in2="hardAlpha" operator="arithmetic" k2="-1" k3="1"/>
<feColorMatrix type="matrix" values="0 0 0 0 0 0 0 0 0 0 0 0 0 0 0 0 0 0 1 0"/>
<feBlend mode="normal" in2="shape" result="effect1_innerShadow_374_65"/>
</filter>
</defs>
</svg>
