<svg width="28" height="28" viewBox="0 0 28 28" fill="none" xmlns="http://www.w3.org/2000/svg">
<path d="M24.465 18.76C24.185 21.875 21.9334 23.9167 18.6667 23.9167H8.16671C4.94671 23.9167 2.33337 21.3033 2.33337 18.0833V9.91668C2.33337 6.74334 4.24671 4.52668 7.22171 4.15334C7.52504 4.10668 7.84004 4.08334 8.16671 4.08334H18.6667C18.97 4.08334 19.2617 4.09501 19.5417 4.14168C22.33 4.46834 24.22 6.41668 24.465 9.24001C24.5 9.57834 24.22 9.85834 23.8817 9.85834H22.0734C20.9534 9.85834 19.915 10.29 19.1684 11.06C18.2817 11.9233 17.8384 13.1367 17.9434 14.35C18.13 16.4733 19.9967 18.1417 22.2134 18.1417H23.8817C24.22 18.1417 24.5 18.4217 24.465 18.76Z" fill="#595959"/>
<path d="M25.667 12.7974V15.2007C25.667 15.8424 25.1536 16.3674 24.5003 16.3907H22.2136C20.9536 16.3907 19.7986 15.4691 19.6936 14.2091C19.6236 13.4741 19.9036 12.7857 20.3936 12.3074C20.8253 11.8641 21.4203 11.6074 22.0736 11.6074H24.5003C25.1536 11.6308 25.667 12.1557 25.667 12.7974Z" fill="#595959"/>
</svg>
