<svg width="28" height="28" viewBox="0 0 28 28" fill="none" xmlns="http://www.w3.org/2000/svg">
<path fill-rule="evenodd" clip-rule="evenodd" d="M24.4108 13.7086C24.3871 13.7084 24.356 13.7084 24.3055 13.7084H21.2693C19.6086 13.7084 18.375 14.9435 18.375 16.3334C18.375 17.7232 19.6086 18.9584 21.2693 18.9584H24.3055C24.356 18.9584 24.3871 18.9584 24.4108 18.9581C24.4332 18.9579 24.4393 18.9574 24.4393 18.9574C24.6797 18.9429 24.7832 18.7806 24.7911 18.6829C24.7911 18.6829 24.7913 18.6757 24.7914 18.6651C24.7917 18.6443 24.7917 18.6168 24.7917 18.5695V14.0972C24.7917 14.0711 24.7917 14.051 24.7917 14.0347C24.7916 14.0216 24.7916 14.0109 24.7914 14.0017C24.7913 13.9912 24.7911 13.9838 24.7911 13.9838C24.7832 13.8862 24.6797 13.7239 24.4392 13.7093C24.4392 13.7093 24.4335 13.7088 24.4108 13.7086ZM24.3249 11.9584C24.4024 11.9584 24.477 11.9583 24.5456 11.9625C25.5621 12.0244 26.4612 12.7911 26.5368 13.8621C26.5418 13.9324 26.5417 14.0081 26.5417 14.0782C26.5417 14.0846 26.5417 14.0909 26.5417 14.0972V18.5695C26.5417 18.5758 26.5417 18.5821 26.5417 18.5885C26.5417 18.6587 26.5418 18.7344 26.5368 18.8046C26.4612 19.8756 25.5621 20.6423 24.5456 20.7043C24.477 20.7085 24.4024 20.7084 24.3249 20.7084C24.3185 20.7084 24.3121 20.7084 24.3055 20.7084H21.2693C18.7665 20.7084 16.625 18.8095 16.625 16.3334C16.625 13.8572 18.7665 11.9584 21.2693 11.9584H24.3055C24.3121 11.9584 24.3185 11.9584 24.3249 11.9584Z" fill="#595959"/>
<path d="M22.1666 16.3333C22.1666 16.9776 21.6443 17.5 21 17.5C20.3556 17.5 19.8333 16.9776 19.8333 16.3333C19.8333 15.6889 20.3556 15.1666 21 15.1666C21.6443 15.1666 22.1666 15.6889 22.1666 16.3333Z" fill="#595959"/>
<path fill-rule="evenodd" clip-rule="evenodd" d="M24.3249 11.9583C24.4023 11.9583 24.477 11.9582 24.5456 11.9624C24.8086 11.9784 25.0637 12.0416 25.2988 12.1451C25.174 10.2709 24.8303 8.82657 23.7519 7.74811C22.8788 6.87503 21.7716 6.48755 20.4038 6.30365L20.3545 6.29713C20.3422 6.28806 20.3297 6.27927 20.3169 6.27074L15.9588 3.38107C14.4384 2.37298 12.3949 2.37298 10.8745 3.38107L6.51644 6.27074C6.5036 6.27927 6.49105 6.28806 6.4788 6.29713L6.42946 6.30365C5.06163 6.48755 3.95453 6.87503 3.08143 7.74811C2.20834 8.62121 1.82087 9.72832 1.63698 11.0961C1.45828 12.4252 1.45829 14.1234 1.45831 16.2675V16.3991C1.45829 18.5432 1.45828 20.2414 1.63698 21.5705C1.82087 22.9383 2.20834 24.0455 3.08143 24.9186C3.95453 25.7916 5.06163 26.1791 6.42946 26.363C7.75854 26.5417 9.45678 26.5417 11.6008 26.5417H15.2324C17.3765 26.5417 19.0747 26.5417 20.4038 26.363C21.7716 26.1791 22.8788 25.7916 23.7519 24.9186C24.8303 23.8401 25.174 22.3958 25.2988 20.5215C25.0637 20.625 24.8086 20.6883 24.5456 20.7042C24.477 20.7084 24.4023 20.7083 24.3249 20.7083H24.3055H23.5292C23.3964 22.2734 23.096 23.0995 22.5144 23.6811C22.0207 24.1748 21.3444 24.4708 20.1707 24.6286C18.9717 24.7898 17.3912 24.7917 15.1666 24.7917H11.6666C9.44202 24.7917 7.86158 24.7898 6.66264 24.6286C5.48887 24.4708 4.81261 24.1748 4.31886 23.6811C3.82512 23.1874 3.52917 22.5111 3.37137 21.3374C3.21017 20.1384 3.20831 18.5579 3.20831 16.3333C3.20831 14.1087 3.21017 12.5282 3.37137 11.3293C3.52917 10.1556 3.82512 9.47929 4.31886 8.98555C4.81261 8.4918 5.48887 8.19586 6.66264 8.03805C7.86158 7.87685 9.44202 7.875 11.6666 7.875H15.1666C17.3912 7.875 18.9717 7.87685 20.1707 8.03805C21.3444 8.19586 22.0207 8.4918 22.5144 8.98555C23.096 9.56717 23.3964 10.3933 23.5292 11.9583H24.3055H24.3249ZM11.6008 6.125H15.2324C15.835 6.12499 16.4024 6.12499 16.9362 6.12895L14.9918 4.83958C14.0575 4.22014 12.7758 4.22014 11.8416 4.83958L9.89702 6.12895C10.4309 6.12499 10.9982 6.12499 11.6008 6.125Z" fill="#595959"/>
<path d="M7 10.7916C6.51675 10.7916 6.125 11.1834 6.125 11.6666C6.125 12.1499 6.51675 12.5416 7 12.5416H11.6667C12.1499 12.5416 12.5417 12.1499 12.5417 11.6666C12.5417 11.1834 12.1499 10.7916 11.6667 10.7916H7Z" fill="#595959"/>
<path fill-rule="evenodd" clip-rule="evenodd" d="M22.1666 16.3333C22.1666 16.9776 21.6443 17.5 21 17.5C20.3556 17.5 19.8333 16.9776 19.8333 16.3333C19.8333 15.6889 20.3556 15.1666 21 15.1666C21.6443 15.1666 22.1666 15.6889 22.1666 16.3333Z" fill="#595959"/>
</svg>
